G04 #@! TF.GenerationSoftware,KiCad,Pcbnew,6.0.4-6f826c9f35~116~ubuntu20.04.1*
G04 #@! TF.CreationDate,2022-04-25T20:45:33+02:00*
G04 #@! TF.ProjectId,Open_KIoT,4f70656e-5f4b-4496-9f54-2e6b69636164,rev?*
G04 #@! TF.SameCoordinates,Original*
G04 #@! TF.FileFunction,Soldermask,Top*
G04 #@! TF.FilePolarity,Negative*
%FSLAX46Y46*%
G04 Gerber Fmt 4.6, Leading zero omitted, Abs format (unit mm)*
G04 Created by KiCad (PCBNEW 6.0.4-6f826c9f35~116~ubuntu20.04.1) date 2022-04-25 20:45:33*
%MOMM*%
%LPD*%
G01*
G04 APERTURE LIST*
G04 Aperture macros list*
%AMRoundRect*
0 Rectangle with rounded corners*
0 $1 Rounding radius*
0 $2 $3 $4 $5 $6 $7 $8 $9 X,Y pos of 4 corners*
0 Add a 4 corners polygon primitive as box body*
4,1,4,$2,$3,$4,$5,$6,$7,$8,$9,$2,$3,0*
0 Add four circle primitives for the rounded corners*
1,1,$1+$1,$2,$3*
1,1,$1+$1,$4,$5*
1,1,$1+$1,$6,$7*
1,1,$1+$1,$8,$9*
0 Add four rect primitives between the rounded corners*
20,1,$1+$1,$2,$3,$4,$5,0*
20,1,$1+$1,$4,$5,$6,$7,0*
20,1,$1+$1,$6,$7,$8,$9,0*
20,1,$1+$1,$8,$9,$2,$3,0*%
G04 Aperture macros list end*
%ADD10R,1.800000X1.800000*%
%ADD11C,1.800000*%
%ADD12C,1.524000*%
%ADD13C,2.000000*%
%ADD14R,3.500000X3.500000*%
%ADD15RoundRect,0.750000X1.000000X-0.750000X1.000000X0.750000X-1.000000X0.750000X-1.000000X-0.750000X0*%
%ADD16RoundRect,0.875000X0.875000X-0.875000X0.875000X0.875000X-0.875000X0.875000X-0.875000X-0.875000X0*%
%ADD17C,6.400000*%
%ADD18C,0.800000*%
%ADD19R,1.700000X1.700000*%
%ADD20O,1.700000X1.700000*%
%ADD21C,1.600000*%
%ADD22O,1.600000X1.600000*%
%ADD23R,1.905000X2.000000*%
%ADD24O,1.905000X2.000000*%
%ADD25R,1.600000X1.600000*%
%ADD26R,2.200000X2.200000*%
%ADD27O,2.200000X2.200000*%
G04 APERTURE END LIST*
D10*
X128247500Y-124545000D03*
D11*
X128247500Y-127085000D03*
D10*
X120347500Y-124545000D03*
D11*
X120347500Y-127085000D03*
D12*
X66841100Y-150768100D03*
X69381100Y-150768100D03*
X71921100Y-150768100D03*
X74461100Y-150768100D03*
X77001100Y-150768100D03*
X79541100Y-150768100D03*
X82081100Y-150768100D03*
X84621100Y-150768100D03*
X87161100Y-150768100D03*
X89701100Y-150768100D03*
X92241100Y-150768100D03*
X94781100Y-150768100D03*
X97321100Y-150768100D03*
X99861100Y-150768100D03*
X102401100Y-150768100D03*
X102401100Y-125368100D03*
X99861100Y-125368100D03*
X97321100Y-125368100D03*
X94781100Y-125368100D03*
X92241100Y-125368100D03*
X89701100Y-125368100D03*
X87161100Y-125368100D03*
X84621100Y-125368100D03*
X82081100Y-125368100D03*
X79541100Y-125368100D03*
X77001100Y-125368100D03*
X74461100Y-125368100D03*
X71921100Y-125368100D03*
X69381100Y-125368100D03*
X66841100Y-125368100D03*
D13*
X118097500Y-143670000D03*
X118097500Y-137170000D03*
X122597500Y-137170000D03*
X122597500Y-143670000D03*
X127197500Y-143670000D03*
X127197500Y-137170000D03*
X131697500Y-137170000D03*
X131697500Y-143670000D03*
D14*
X138642500Y-154200000D03*
D15*
X138642500Y-160200000D03*
D16*
X143342500Y-157200000D03*
D17*
X66300000Y-161040000D03*
D18*
X67997056Y-159342944D03*
X63900000Y-161040000D03*
X67997056Y-162737056D03*
X68700000Y-161040000D03*
X66300000Y-163440000D03*
X64602944Y-162737056D03*
X66300000Y-158640000D03*
X64602944Y-159342944D03*
D19*
X106258900Y-162096400D03*
D20*
X108798900Y-162096400D03*
X111338900Y-162096400D03*
D19*
X79433900Y-159556400D03*
D20*
X81973900Y-159556400D03*
X84513900Y-159556400D03*
X87053900Y-159556400D03*
X89593900Y-159556400D03*
X92133900Y-159556400D03*
X94673900Y-159556400D03*
X97213900Y-159556400D03*
D19*
X106258900Y-157016400D03*
D20*
X108798900Y-157016400D03*
X111338900Y-157016400D03*
D19*
X79433900Y-162096400D03*
D20*
X81973900Y-162096400D03*
X84513900Y-162096400D03*
X87053900Y-162096400D03*
X89593900Y-162096400D03*
X92133900Y-162096400D03*
X94673900Y-162096400D03*
X97213900Y-162096400D03*
X92200000Y-119000000D03*
X89660000Y-119000000D03*
X87120000Y-119000000D03*
X84580000Y-119000000D03*
X82040000Y-119000000D03*
X79500000Y-119000000D03*
X76960000Y-119000000D03*
X74420000Y-119000000D03*
X71880000Y-119000000D03*
X69340000Y-119000000D03*
D19*
X66800000Y-119000000D03*
X106258900Y-159556400D03*
D20*
X108798900Y-159556400D03*
X111338900Y-159556400D03*
D17*
X154330000Y-119960000D03*
D18*
X152632944Y-121657056D03*
X156027056Y-118262944D03*
X154330000Y-122360000D03*
X156730000Y-119960000D03*
X156027056Y-121657056D03*
X154330000Y-117560000D03*
X151930000Y-119960000D03*
X152632944Y-118262944D03*
D19*
X79433900Y-157016400D03*
D20*
X81973900Y-157016400D03*
X84513900Y-157016400D03*
X87053900Y-157016400D03*
X89593900Y-157016400D03*
X92133900Y-157016400D03*
X94673900Y-157016400D03*
X97213900Y-157016400D03*
D21*
X99637500Y-134160000D03*
D22*
X99637500Y-141780000D03*
D21*
X74000357Y-134160000D03*
D22*
X74000357Y-141780000D03*
D21*
X84732500Y-147480000D03*
X84732500Y-144980000D03*
X69377500Y-129540000D03*
D22*
X76997500Y-129540000D03*
D21*
X127180832Y-146620000D03*
D22*
X127180832Y-154240000D03*
D21*
X110247500Y-142940000D03*
D22*
X102627500Y-142940000D03*
D21*
X82546071Y-134160000D03*
D22*
X82546071Y-141780000D03*
D21*
X93057500Y-131420000D03*
X93057500Y-128920000D03*
X91091785Y-134160000D03*
D22*
X91091785Y-141780000D03*
D21*
X69677500Y-147480000D03*
X69677500Y-144980000D03*
X102627500Y-131930000D03*
D22*
X110247500Y-131930000D03*
D21*
X77205000Y-147480000D03*
X77205000Y-144980000D03*
X88496250Y-147480000D03*
X88496250Y-144980000D03*
X156147500Y-138070000D03*
X158647500Y-138070000D03*
X92260000Y-147480000D03*
X92260000Y-144980000D03*
X79647500Y-129540000D03*
D22*
X87267500Y-129540000D03*
D21*
X96023750Y-147480000D03*
X96023750Y-144980000D03*
D23*
X148380000Y-138110000D03*
D24*
X145840000Y-138110000D03*
X143300000Y-138110000D03*
D22*
X95364642Y-141780000D03*
D21*
X95364642Y-134160000D03*
D25*
X156247500Y-133320000D03*
D21*
X158247500Y-133320000D03*
X122614166Y-149180000D03*
X122614166Y-151680000D03*
D26*
X151552613Y-143220000D03*
D27*
X138852613Y-143220000D03*
D21*
X131747500Y-149180000D03*
X131747500Y-151680000D03*
X110247500Y-128260000D03*
D22*
X102627500Y-128260000D03*
D21*
X99787500Y-147480000D03*
X99787500Y-144980000D03*
X78273214Y-134160000D03*
D22*
X78273214Y-141780000D03*
D21*
X102627500Y-146610000D03*
D22*
X110247500Y-146610000D03*
D21*
X73441250Y-147480000D03*
X73441250Y-144980000D03*
D25*
X156092388Y-143220000D03*
D21*
X158092388Y-143220000D03*
X118047500Y-146620000D03*
D22*
X118047500Y-154240000D03*
D25*
X102412388Y-120220000D03*
D21*
X104412388Y-120220000D03*
X86818928Y-134160000D03*
D22*
X86818928Y-141780000D03*
D21*
X102627500Y-135600000D03*
D22*
X110247500Y-135600000D03*
D21*
X102627500Y-139270000D03*
D22*
X110247500Y-139270000D03*
D21*
X80968750Y-147480000D03*
X80968750Y-144980000D03*
X69727500Y-134160000D03*
D22*
X69727500Y-141780000D03*
M02*
