G04 #@! TF.GenerationSoftware,KiCad,Pcbnew,6.0.4-6f826c9f35~116~ubuntu20.04.1*
G04 #@! TF.CreationDate,2022-04-25T20:45:33+02:00*
G04 #@! TF.ProjectId,Open_KIoT,4f70656e-5f4b-4496-9f54-2e6b69636164,rev?*
G04 #@! TF.SameCoordinates,Original*
G04 #@! TF.FileFunction,Legend,Bot*
G04 #@! TF.FilePolarity,Positive*
%FSLAX46Y46*%
G04 Gerber Fmt 4.6, Leading zero omitted, Abs format (unit mm)*
G04 Created by KiCad (PCBNEW 6.0.4-6f826c9f35~116~ubuntu20.04.1) date 2022-04-25 20:45:33*
%MOMM*%
%LPD*%
G01*
G04 APERTURE LIST*
%ADD10C,0.150000*%
%ADD11C,0.120000*%
G04 APERTURE END LIST*
D10*
X76652380Y-164752380D02*
X76557142Y-164752380D01*
X76461904Y-164800000D01*
X76414285Y-164847619D01*
X76366666Y-164942857D01*
X76319047Y-165133333D01*
X76319047Y-165371428D01*
X76366666Y-165561904D01*
X76414285Y-165657142D01*
X76461904Y-165704761D01*
X76557142Y-165752380D01*
X76652380Y-165752380D01*
X76747619Y-165704761D01*
X76795238Y-165657142D01*
X76842857Y-165561904D01*
X76890476Y-165371428D01*
X76890476Y-165133333D01*
X76842857Y-164942857D01*
X76795238Y-164847619D01*
X76747619Y-164800000D01*
X76652380Y-164752380D01*
X75461904Y-165085714D02*
X75461904Y-165752380D01*
X75700000Y-164704761D02*
X75938095Y-165419047D01*
X75319047Y-165419047D01*
X74223809Y-164704761D02*
X75080952Y-165990476D01*
X73938095Y-164847619D02*
X73890476Y-164800000D01*
X73795238Y-164752380D01*
X73557142Y-164752380D01*
X73461904Y-164800000D01*
X73414285Y-164847619D01*
X73366666Y-164942857D01*
X73366666Y-165038095D01*
X73414285Y-165180952D01*
X73985714Y-165752380D01*
X73366666Y-165752380D01*
X72747619Y-164752380D02*
X72652380Y-164752380D01*
X72557142Y-164800000D01*
X72509523Y-164847619D01*
X72461904Y-164942857D01*
X72414285Y-165133333D01*
X72414285Y-165371428D01*
X72461904Y-165561904D01*
X72509523Y-165657142D01*
X72557142Y-165704761D01*
X72652380Y-165752380D01*
X72747619Y-165752380D01*
X72842857Y-165704761D01*
X72890476Y-165657142D01*
X72938095Y-165561904D01*
X72985714Y-165371428D01*
X72985714Y-165133333D01*
X72938095Y-164942857D01*
X72890476Y-164847619D01*
X72842857Y-164800000D01*
X72747619Y-164752380D01*
X72033333Y-164847619D02*
X71985714Y-164800000D01*
X71890476Y-164752380D01*
X71652380Y-164752380D01*
X71557142Y-164800000D01*
X71509523Y-164847619D01*
X71461904Y-164942857D01*
X71461904Y-165038095D01*
X71509523Y-165180952D01*
X72080952Y-165752380D01*
X71461904Y-165752380D01*
X71080952Y-164847619D02*
X71033333Y-164800000D01*
X70938095Y-164752380D01*
X70700000Y-164752380D01*
X70604761Y-164800000D01*
X70557142Y-164847619D01*
X70509523Y-164942857D01*
X70509523Y-165038095D01*
X70557142Y-165180952D01*
X71128571Y-165752380D01*
X70509523Y-165752380D01*
X153933333Y-165752380D02*
X153933333Y-164752380D01*
X153504761Y-165752380D02*
X153504761Y-165228571D01*
X153552380Y-165133333D01*
X153647619Y-165085714D01*
X153790476Y-165085714D01*
X153885714Y-165133333D01*
X153933333Y-165180952D01*
X153171428Y-165085714D02*
X152790476Y-165085714D01*
X153028571Y-164752380D02*
X153028571Y-165609523D01*
X152980952Y-165704761D01*
X152885714Y-165752380D01*
X152790476Y-165752380D01*
X152600000Y-165085714D02*
X152219047Y-165085714D01*
X152457142Y-164752380D02*
X152457142Y-165609523D01*
X152409523Y-165704761D01*
X152314285Y-165752380D01*
X152219047Y-165752380D01*
X151885714Y-165085714D02*
X151885714Y-166085714D01*
X151885714Y-165133333D02*
X151790476Y-165085714D01*
X151600000Y-165085714D01*
X151504761Y-165133333D01*
X151457142Y-165180952D01*
X151409523Y-165276190D01*
X151409523Y-165561904D01*
X151457142Y-165657142D01*
X151504761Y-165704761D01*
X151600000Y-165752380D01*
X151790476Y-165752380D01*
X151885714Y-165704761D01*
X151028571Y-165704761D02*
X150933333Y-165752380D01*
X150742857Y-165752380D01*
X150647619Y-165704761D01*
X150600000Y-165609523D01*
X150600000Y-165561904D01*
X150647619Y-165466666D01*
X150742857Y-165419047D01*
X150885714Y-165419047D01*
X150980952Y-165371428D01*
X151028571Y-165276190D01*
X151028571Y-165228571D01*
X150980952Y-165133333D01*
X150885714Y-165085714D01*
X150742857Y-165085714D01*
X150647619Y-165133333D01*
X150171428Y-165657142D02*
X150123809Y-165704761D01*
X150171428Y-165752380D01*
X150219047Y-165704761D01*
X150171428Y-165657142D01*
X150171428Y-165752380D01*
X150171428Y-165133333D02*
X150123809Y-165180952D01*
X150171428Y-165228571D01*
X150219047Y-165180952D01*
X150171428Y-165133333D01*
X150171428Y-165228571D01*
X148980952Y-164704761D02*
X149838095Y-165990476D01*
X147933333Y-164704761D02*
X148790476Y-165990476D01*
X147171428Y-165085714D02*
X147171428Y-165895238D01*
X147219047Y-165990476D01*
X147266666Y-166038095D01*
X147361904Y-166085714D01*
X147504761Y-166085714D01*
X147600000Y-166038095D01*
X147171428Y-165704761D02*
X147266666Y-165752380D01*
X147457142Y-165752380D01*
X147552380Y-165704761D01*
X147600000Y-165657142D01*
X147647619Y-165561904D01*
X147647619Y-165276190D01*
X147600000Y-165180952D01*
X147552380Y-165133333D01*
X147457142Y-165085714D01*
X147266666Y-165085714D01*
X147171428Y-165133333D01*
X146695238Y-165752380D02*
X146695238Y-165085714D01*
X146695238Y-164752380D02*
X146742857Y-164800000D01*
X146695238Y-164847619D01*
X146647619Y-164800000D01*
X146695238Y-164752380D01*
X146695238Y-164847619D01*
X146361904Y-165085714D02*
X145980952Y-165085714D01*
X146219047Y-164752380D02*
X146219047Y-165609523D01*
X146171428Y-165704761D01*
X146076190Y-165752380D01*
X145980952Y-165752380D01*
X145647619Y-165752380D02*
X145647619Y-164752380D01*
X145219047Y-165752380D02*
X145219047Y-165228571D01*
X145266666Y-165133333D01*
X145361904Y-165085714D01*
X145504761Y-165085714D01*
X145600000Y-165133333D01*
X145647619Y-165180952D01*
X144314285Y-165085714D02*
X144314285Y-165752380D01*
X144742857Y-165085714D02*
X144742857Y-165609523D01*
X144695238Y-165704761D01*
X144600000Y-165752380D01*
X144457142Y-165752380D01*
X144361904Y-165704761D01*
X144314285Y-165657142D01*
X143838095Y-165752380D02*
X143838095Y-164752380D01*
X143838095Y-165133333D02*
X143742857Y-165085714D01*
X143552380Y-165085714D01*
X143457142Y-165133333D01*
X143409523Y-165180952D01*
X143361904Y-165276190D01*
X143361904Y-165561904D01*
X143409523Y-165657142D01*
X143457142Y-165704761D01*
X143552380Y-165752380D01*
X143742857Y-165752380D01*
X143838095Y-165704761D01*
X142933333Y-165657142D02*
X142885714Y-165704761D01*
X142933333Y-165752380D01*
X142980952Y-165704761D01*
X142933333Y-165657142D01*
X142933333Y-165752380D01*
X142028571Y-165704761D02*
X142123809Y-165752380D01*
X142314285Y-165752380D01*
X142409523Y-165704761D01*
X142457142Y-165657142D01*
X142504761Y-165561904D01*
X142504761Y-165276190D01*
X142457142Y-165180952D01*
X142409523Y-165133333D01*
X142314285Y-165085714D01*
X142123809Y-165085714D01*
X142028571Y-165133333D01*
X141457142Y-165752380D02*
X141552380Y-165704761D01*
X141600000Y-165657142D01*
X141647619Y-165561904D01*
X141647619Y-165276190D01*
X141600000Y-165180952D01*
X141552380Y-165133333D01*
X141457142Y-165085714D01*
X141314285Y-165085714D01*
X141219047Y-165133333D01*
X141171428Y-165180952D01*
X141123809Y-165276190D01*
X141123809Y-165561904D01*
X141171428Y-165657142D01*
X141219047Y-165704761D01*
X141314285Y-165752380D01*
X141457142Y-165752380D01*
X140695238Y-165752380D02*
X140695238Y-165085714D01*
X140695238Y-165180952D02*
X140647619Y-165133333D01*
X140552380Y-165085714D01*
X140409523Y-165085714D01*
X140314285Y-165133333D01*
X140266666Y-165228571D01*
X140266666Y-165752380D01*
X140266666Y-165228571D02*
X140219047Y-165133333D01*
X140123809Y-165085714D01*
X139980952Y-165085714D01*
X139885714Y-165133333D01*
X139838095Y-165228571D01*
X139838095Y-165752380D01*
X138647619Y-164704761D02*
X139504761Y-165990476D01*
X138409523Y-165085714D02*
X138171428Y-165752380D01*
X137933333Y-165085714D01*
X137409523Y-165752380D02*
X137504761Y-165704761D01*
X137552380Y-165657142D01*
X137600000Y-165561904D01*
X137600000Y-165276190D01*
X137552380Y-165180952D01*
X137504761Y-165133333D01*
X137409523Y-165085714D01*
X137266666Y-165085714D01*
X137171428Y-165133333D01*
X137123809Y-165180952D01*
X137076190Y-165276190D01*
X137076190Y-165561904D01*
X137123809Y-165657142D01*
X137171428Y-165704761D01*
X137266666Y-165752380D01*
X137409523Y-165752380D01*
X136504761Y-165752380D02*
X136600000Y-165704761D01*
X136647619Y-165609523D01*
X136647619Y-164752380D01*
X135695238Y-165085714D02*
X135695238Y-165752380D01*
X136123809Y-165085714D02*
X136123809Y-165609523D01*
X136076190Y-165704761D01*
X135980952Y-165752380D01*
X135838095Y-165752380D01*
X135742857Y-165704761D01*
X135695238Y-165657142D01*
X135361904Y-165085714D02*
X134980952Y-165085714D01*
X135219047Y-164752380D02*
X135219047Y-165609523D01*
X135171428Y-165704761D01*
X135076190Y-165752380D01*
X134980952Y-165752380D01*
X134219047Y-165752380D02*
X134219047Y-165228571D01*
X134266666Y-165133333D01*
X134361904Y-165085714D01*
X134552380Y-165085714D01*
X134647619Y-165133333D01*
X134219047Y-165704761D02*
X134314285Y-165752380D01*
X134552380Y-165752380D01*
X134647619Y-165704761D01*
X134695238Y-165609523D01*
X134695238Y-165514285D01*
X134647619Y-165419047D01*
X134552380Y-165371428D01*
X134314285Y-165371428D01*
X134219047Y-165323809D01*
X133742857Y-165371428D02*
X132980952Y-165371428D01*
X132076190Y-165704761D02*
X132171428Y-165752380D01*
X132361904Y-165752380D01*
X132457142Y-165704761D01*
X132504761Y-165657142D01*
X132552380Y-165561904D01*
X132552380Y-165276190D01*
X132504761Y-165180952D01*
X132457142Y-165133333D01*
X132361904Y-165085714D01*
X132171428Y-165085714D01*
X132076190Y-165133333D01*
X131504761Y-165752380D02*
X131600000Y-165704761D01*
X131647619Y-165657142D01*
X131695238Y-165561904D01*
X131695238Y-165276190D01*
X131647619Y-165180952D01*
X131600000Y-165133333D01*
X131504761Y-165085714D01*
X131361904Y-165085714D01*
X131266666Y-165133333D01*
X131219047Y-165180952D01*
X131171428Y-165276190D01*
X131171428Y-165561904D01*
X131219047Y-165657142D01*
X131266666Y-165704761D01*
X131361904Y-165752380D01*
X131504761Y-165752380D01*
X130600000Y-165752380D02*
X130695238Y-165704761D01*
X130742857Y-165657142D01*
X130790476Y-165561904D01*
X130790476Y-165276190D01*
X130742857Y-165180952D01*
X130695238Y-165133333D01*
X130600000Y-165085714D01*
X130457142Y-165085714D01*
X130361904Y-165133333D01*
X130314285Y-165180952D01*
X130266666Y-165276190D01*
X130266666Y-165561904D01*
X130314285Y-165657142D01*
X130361904Y-165704761D01*
X130457142Y-165752380D01*
X130600000Y-165752380D01*
X129838095Y-165085714D02*
X129838095Y-166085714D01*
X129838095Y-165133333D02*
X129742857Y-165085714D01*
X129552380Y-165085714D01*
X129457142Y-165133333D01*
X129409523Y-165180952D01*
X129361904Y-165276190D01*
X129361904Y-165561904D01*
X129409523Y-165657142D01*
X129457142Y-165704761D01*
X129552380Y-165752380D01*
X129742857Y-165752380D01*
X129838095Y-165704761D01*
X128219047Y-164704761D02*
X129076190Y-165990476D01*
X127695238Y-164752380D02*
X127504761Y-164752380D01*
X127409523Y-164800000D01*
X127314285Y-164895238D01*
X127266666Y-165085714D01*
X127266666Y-165419047D01*
X127314285Y-165609523D01*
X127409523Y-165704761D01*
X127504761Y-165752380D01*
X127695238Y-165752380D01*
X127790476Y-165704761D01*
X127885714Y-165609523D01*
X127933333Y-165419047D01*
X127933333Y-165085714D01*
X127885714Y-164895238D01*
X127790476Y-164800000D01*
X127695238Y-164752380D01*
X126838095Y-165085714D02*
X126838095Y-166085714D01*
X126838095Y-165133333D02*
X126742857Y-165085714D01*
X126552380Y-165085714D01*
X126457142Y-165133333D01*
X126409523Y-165180952D01*
X126361904Y-165276190D01*
X126361904Y-165561904D01*
X126409523Y-165657142D01*
X126457142Y-165704761D01*
X126552380Y-165752380D01*
X126742857Y-165752380D01*
X126838095Y-165704761D01*
X125552380Y-165704761D02*
X125647619Y-165752380D01*
X125838095Y-165752380D01*
X125933333Y-165704761D01*
X125980952Y-165609523D01*
X125980952Y-165228571D01*
X125933333Y-165133333D01*
X125838095Y-165085714D01*
X125647619Y-165085714D01*
X125552380Y-165133333D01*
X125504761Y-165228571D01*
X125504761Y-165323809D01*
X125980952Y-165419047D01*
X125076190Y-165085714D02*
X125076190Y-165752380D01*
X125076190Y-165180952D02*
X125028571Y-165133333D01*
X124933333Y-165085714D01*
X124790476Y-165085714D01*
X124695238Y-165133333D01*
X124647619Y-165228571D01*
X124647619Y-165752380D01*
X124171428Y-165371428D02*
X123409523Y-165371428D01*
X122933333Y-165752380D02*
X122933333Y-164752380D01*
X122361904Y-165752380D02*
X122790476Y-165180952D01*
X122361904Y-164752380D02*
X122933333Y-165323809D01*
X121933333Y-165752380D02*
X121933333Y-164752380D01*
X121314285Y-165752380D02*
X121409523Y-165704761D01*
X121457142Y-165657142D01*
X121504761Y-165561904D01*
X121504761Y-165276190D01*
X121457142Y-165180952D01*
X121409523Y-165133333D01*
X121314285Y-165085714D01*
X121171428Y-165085714D01*
X121076190Y-165133333D01*
X121028571Y-165180952D01*
X120980952Y-165276190D01*
X120980952Y-165561904D01*
X121028571Y-165657142D01*
X121076190Y-165704761D01*
X121171428Y-165752380D01*
X121314285Y-165752380D01*
X120695238Y-164752380D02*
X120123809Y-164752380D01*
X120409523Y-165752380D02*
X120409523Y-164752380D01*
X75328571Y-162885714D02*
X75090476Y-163552380D01*
X74852380Y-162885714D01*
X74519047Y-162647619D02*
X74471428Y-162600000D01*
X74376190Y-162552380D01*
X74138095Y-162552380D01*
X74042857Y-162600000D01*
X73995238Y-162647619D01*
X73947619Y-162742857D01*
X73947619Y-162838095D01*
X73995238Y-162980952D01*
X74566666Y-163552380D01*
X73947619Y-163552380D01*
X73519047Y-163457142D02*
X73471428Y-163504761D01*
X73519047Y-163552380D01*
X73566666Y-163504761D01*
X73519047Y-163457142D01*
X73519047Y-163552380D01*
X73090476Y-162647619D02*
X73042857Y-162600000D01*
X72947619Y-162552380D01*
X72709523Y-162552380D01*
X72614285Y-162600000D01*
X72566666Y-162647619D01*
X72519047Y-162742857D01*
X72519047Y-162838095D01*
X72566666Y-162980952D01*
X73138095Y-163552380D01*
X72519047Y-163552380D01*
X100079880Y-137457142D02*
X99603690Y-137123809D01*
X100079880Y-136885714D02*
X99079880Y-136885714D01*
X99079880Y-137266666D01*
X99127500Y-137361904D01*
X99175119Y-137409523D01*
X99270357Y-137457142D01*
X99413214Y-137457142D01*
X99508452Y-137409523D01*
X99556071Y-137361904D01*
X99603690Y-137266666D01*
X99603690Y-136885714D01*
X100079880Y-138409523D02*
X100079880Y-137838095D01*
X100079880Y-138123809D02*
X99079880Y-138123809D01*
X99222738Y-138028571D01*
X99317976Y-137933333D01*
X99365595Y-137838095D01*
X99079880Y-139266666D02*
X99079880Y-139076190D01*
X99127500Y-138980952D01*
X99175119Y-138933333D01*
X99317976Y-138838095D01*
X99508452Y-138790476D01*
X99889404Y-138790476D01*
X99984642Y-138838095D01*
X100032261Y-138885714D01*
X100079880Y-138980952D01*
X100079880Y-139171428D01*
X100032261Y-139266666D01*
X99984642Y-139314285D01*
X99889404Y-139361904D01*
X99651309Y-139361904D01*
X99556071Y-139314285D01*
X99508452Y-139266666D01*
X99460833Y-139171428D01*
X99460833Y-138980952D01*
X99508452Y-138885714D01*
X99556071Y-138838095D01*
X99651309Y-138790476D01*
X74372737Y-137723333D02*
X73896547Y-137390000D01*
X74372737Y-137151904D02*
X73372737Y-137151904D01*
X73372737Y-137532857D01*
X73420357Y-137628095D01*
X73467976Y-137675714D01*
X73563214Y-137723333D01*
X73706071Y-137723333D01*
X73801309Y-137675714D01*
X73848928Y-137628095D01*
X73896547Y-137532857D01*
X73896547Y-137151904D01*
X74372737Y-138199523D02*
X74372737Y-138390000D01*
X74325118Y-138485238D01*
X74277499Y-138532857D01*
X74134642Y-138628095D01*
X73944166Y-138675714D01*
X73563214Y-138675714D01*
X73467976Y-138628095D01*
X73420357Y-138580476D01*
X73372737Y-138485238D01*
X73372737Y-138294761D01*
X73420357Y-138199523D01*
X73467976Y-138151904D01*
X73563214Y-138104285D01*
X73801309Y-138104285D01*
X73896547Y-138151904D01*
X73944166Y-138199523D01*
X73991785Y-138294761D01*
X73991785Y-138485238D01*
X73944166Y-138580476D01*
X73896547Y-138628095D01*
X73801309Y-138675714D01*
X84901664Y-149607142D02*
X84949283Y-149654761D01*
X85092140Y-149702380D01*
X85187378Y-149702380D01*
X85330236Y-149654761D01*
X85425474Y-149559523D01*
X85473093Y-149464285D01*
X85520712Y-149273809D01*
X85520712Y-149130952D01*
X85473093Y-148940476D01*
X85425474Y-148845238D01*
X85330236Y-148750000D01*
X85187378Y-148702380D01*
X85092140Y-148702380D01*
X84949283Y-148750000D01*
X84901664Y-148797619D01*
X83996902Y-148702380D02*
X84473093Y-148702380D01*
X84520712Y-149178571D01*
X84473093Y-149130952D01*
X84377855Y-149083333D01*
X84139759Y-149083333D01*
X84044521Y-149130952D01*
X83996902Y-149178571D01*
X83949283Y-149273809D01*
X83949283Y-149511904D01*
X83996902Y-149607142D01*
X84044521Y-149654761D01*
X84139759Y-149702380D01*
X84377855Y-149702380D01*
X84473093Y-149654761D01*
X84520712Y-149607142D01*
X73770357Y-130022380D02*
X74103690Y-129546190D01*
X74341785Y-130022380D02*
X74341785Y-129022380D01*
X73960833Y-129022380D01*
X73865595Y-129070000D01*
X73817976Y-129117619D01*
X73770357Y-129212857D01*
X73770357Y-129355714D01*
X73817976Y-129450952D01*
X73865595Y-129498571D01*
X73960833Y-129546190D01*
X74341785Y-129546190D01*
X72817976Y-130022380D02*
X73389404Y-130022380D01*
X73103690Y-130022380D02*
X73103690Y-129022380D01*
X73198928Y-129165238D01*
X73294166Y-129260476D01*
X73389404Y-129308095D01*
X72484642Y-129022380D02*
X71817976Y-129022380D01*
X72246547Y-130022380D01*
X127533212Y-150063333D02*
X127057022Y-149730000D01*
X127533212Y-149491904D02*
X126533212Y-149491904D01*
X126533212Y-149872857D01*
X126580832Y-149968095D01*
X126628451Y-150015714D01*
X126723689Y-150063333D01*
X126866546Y-150063333D01*
X126961784Y-150015714D01*
X127009403Y-149968095D01*
X127057022Y-149872857D01*
X127057022Y-149491904D01*
X127533212Y-151015714D02*
X127533212Y-150444285D01*
X127533212Y-150730000D02*
X126533212Y-150730000D01*
X126676070Y-150634761D01*
X126771308Y-150539523D01*
X126818927Y-150444285D01*
X106604166Y-143442380D02*
X106937500Y-142966190D01*
X107175595Y-143442380D02*
X107175595Y-142442380D01*
X106794642Y-142442380D01*
X106699404Y-142490000D01*
X106651785Y-142537619D01*
X106604166Y-142632857D01*
X106604166Y-142775714D01*
X106651785Y-142870952D01*
X106699404Y-142918571D01*
X106794642Y-142966190D01*
X107175595Y-142966190D01*
X105747023Y-142775714D02*
X105747023Y-143442380D01*
X105985119Y-142394761D02*
X106223214Y-143109047D01*
X105604166Y-143109047D01*
X82928451Y-137227142D02*
X82452261Y-136893809D01*
X82928451Y-136655714D02*
X81928451Y-136655714D01*
X81928451Y-137036666D01*
X81976071Y-137131904D01*
X82023690Y-137179523D01*
X82118928Y-137227142D01*
X82261785Y-137227142D01*
X82357023Y-137179523D01*
X82404642Y-137131904D01*
X82452261Y-137036666D01*
X82452261Y-136655714D01*
X82928451Y-138179523D02*
X82928451Y-137608095D01*
X82928451Y-137893809D02*
X81928451Y-137893809D01*
X82071309Y-137798571D01*
X82166547Y-137703333D01*
X82214166Y-137608095D01*
X81928451Y-139084285D02*
X81928451Y-138608095D01*
X82404642Y-138560476D01*
X82357023Y-138608095D01*
X82309404Y-138703333D01*
X82309404Y-138941428D01*
X82357023Y-139036666D01*
X82404642Y-139084285D01*
X82499880Y-139131904D01*
X82737975Y-139131904D01*
X82833213Y-139084285D01*
X82880832Y-139036666D01*
X82928451Y-138941428D01*
X82928451Y-138703333D01*
X82880832Y-138608095D01*
X82833213Y-138560476D01*
X96772857Y-131857142D02*
X96820476Y-131904761D01*
X96963333Y-131952380D01*
X97058571Y-131952380D01*
X97201428Y-131904761D01*
X97296666Y-131809523D01*
X97344285Y-131714285D01*
X97391904Y-131523809D01*
X97391904Y-131380952D01*
X97344285Y-131190476D01*
X97296666Y-131095238D01*
X97201428Y-131000000D01*
X97058571Y-130952380D01*
X96963333Y-130952380D01*
X96820476Y-131000000D01*
X96772857Y-131047619D01*
X95820476Y-131952380D02*
X96391904Y-131952380D01*
X96106190Y-131952380D02*
X96106190Y-130952380D01*
X96201428Y-131095238D01*
X96296666Y-131190476D01*
X96391904Y-131238095D01*
X95439523Y-131047619D02*
X95391904Y-131000000D01*
X95296666Y-130952380D01*
X95058571Y-130952380D01*
X94963333Y-131000000D01*
X94915714Y-131047619D01*
X94868095Y-131142857D01*
X94868095Y-131238095D01*
X94915714Y-131380952D01*
X95487142Y-131952380D01*
X94868095Y-131952380D01*
X91444165Y-137297142D02*
X90967975Y-136963809D01*
X91444165Y-136725714D02*
X90444165Y-136725714D01*
X90444165Y-137106666D01*
X90491785Y-137201904D01*
X90539404Y-137249523D01*
X90634642Y-137297142D01*
X90777499Y-137297142D01*
X90872737Y-137249523D01*
X90920356Y-137201904D01*
X90967975Y-137106666D01*
X90967975Y-136725714D01*
X91444165Y-138249523D02*
X91444165Y-137678095D01*
X91444165Y-137963809D02*
X90444165Y-137963809D01*
X90587023Y-137868571D01*
X90682261Y-137773333D01*
X90729880Y-137678095D01*
X90444165Y-138868571D02*
X90444165Y-138963809D01*
X90491785Y-139059047D01*
X90539404Y-139106666D01*
X90634642Y-139154285D01*
X90825118Y-139201904D01*
X91063213Y-139201904D01*
X91253689Y-139154285D01*
X91348927Y-139106666D01*
X91396546Y-139059047D01*
X91444165Y-138963809D01*
X91444165Y-138868571D01*
X91396546Y-138773333D01*
X91348927Y-138725714D01*
X91253689Y-138678095D01*
X91063213Y-138630476D01*
X90825118Y-138630476D01*
X90634642Y-138678095D01*
X90539404Y-138725714D01*
X90491785Y-138773333D01*
X90444165Y-138868571D01*
X69846666Y-149607142D02*
X69894285Y-149654761D01*
X70037142Y-149702380D01*
X70132380Y-149702380D01*
X70275238Y-149654761D01*
X70370476Y-149559523D01*
X70418095Y-149464285D01*
X70465714Y-149273809D01*
X70465714Y-149130952D01*
X70418095Y-148940476D01*
X70370476Y-148845238D01*
X70275238Y-148750000D01*
X70132380Y-148702380D01*
X70037142Y-148702380D01*
X69894285Y-148750000D01*
X69846666Y-148797619D01*
X68989523Y-149035714D02*
X68989523Y-149702380D01*
X69227619Y-148654761D02*
X69465714Y-149369047D01*
X68846666Y-149369047D01*
X106960357Y-132412380D02*
X107293690Y-131936190D01*
X107531785Y-132412380D02*
X107531785Y-131412380D01*
X107150833Y-131412380D01*
X107055595Y-131460000D01*
X107007976Y-131507619D01*
X106960357Y-131602857D01*
X106960357Y-131745714D01*
X107007976Y-131840952D01*
X107055595Y-131888571D01*
X107150833Y-131936190D01*
X107531785Y-131936190D01*
X106007976Y-132412380D02*
X106579404Y-132412380D01*
X106293690Y-132412380D02*
X106293690Y-131412380D01*
X106388928Y-131555238D01*
X106484166Y-131650476D01*
X106579404Y-131698095D01*
X105627023Y-131507619D02*
X105579404Y-131460000D01*
X105484166Y-131412380D01*
X105246071Y-131412380D01*
X105150833Y-131460000D01*
X105103214Y-131507619D01*
X105055595Y-131602857D01*
X105055595Y-131698095D01*
X105103214Y-131840952D01*
X105674642Y-132412380D01*
X105055595Y-132412380D01*
X77842857Y-149607142D02*
X77890476Y-149654761D01*
X78033333Y-149702380D01*
X78128571Y-149702380D01*
X78271428Y-149654761D01*
X78366666Y-149559523D01*
X78414285Y-149464285D01*
X78461904Y-149273809D01*
X78461904Y-149130952D01*
X78414285Y-148940476D01*
X78366666Y-148845238D01*
X78271428Y-148750000D01*
X78128571Y-148702380D01*
X78033333Y-148702380D01*
X77890476Y-148750000D01*
X77842857Y-148797619D01*
X76890476Y-149702380D02*
X77461904Y-149702380D01*
X77176190Y-149702380D02*
X77176190Y-148702380D01*
X77271428Y-148845238D01*
X77366666Y-148940476D01*
X77461904Y-148988095D01*
X76271428Y-148702380D02*
X76176190Y-148702380D01*
X76080952Y-148750000D01*
X76033333Y-148797619D01*
X75985714Y-148892857D01*
X75938095Y-149083333D01*
X75938095Y-149321428D01*
X75985714Y-149511904D01*
X76033333Y-149607142D01*
X76080952Y-149654761D01*
X76176190Y-149702380D01*
X76271428Y-149702380D01*
X76366666Y-149654761D01*
X76414285Y-149607142D01*
X76461904Y-149511904D01*
X76509523Y-149321428D01*
X76509523Y-149083333D01*
X76461904Y-148892857D01*
X76414285Y-148797619D01*
X76366666Y-148750000D01*
X76271428Y-148702380D01*
X88666666Y-149607142D02*
X88714285Y-149654761D01*
X88857142Y-149702380D01*
X88952380Y-149702380D01*
X89095238Y-149654761D01*
X89190476Y-149559523D01*
X89238095Y-149464285D01*
X89285714Y-149273809D01*
X89285714Y-149130952D01*
X89238095Y-148940476D01*
X89190476Y-148845238D01*
X89095238Y-148750000D01*
X88952380Y-148702380D01*
X88857142Y-148702380D01*
X88714285Y-148750000D01*
X88666666Y-148797619D01*
X88095238Y-149130952D02*
X88190476Y-149083333D01*
X88238095Y-149035714D01*
X88285714Y-148940476D01*
X88285714Y-148892857D01*
X88238095Y-148797619D01*
X88190476Y-148750000D01*
X88095238Y-148702380D01*
X87904761Y-148702380D01*
X87809523Y-148750000D01*
X87761904Y-148797619D01*
X87714285Y-148892857D01*
X87714285Y-148940476D01*
X87761904Y-149035714D01*
X87809523Y-149083333D01*
X87904761Y-149130952D01*
X88095238Y-149130952D01*
X88190476Y-149178571D01*
X88238095Y-149226190D01*
X88285714Y-149321428D01*
X88285714Y-149511904D01*
X88238095Y-149607142D01*
X88190476Y-149654761D01*
X88095238Y-149702380D01*
X87904761Y-149702380D01*
X87809523Y-149654761D01*
X87761904Y-149607142D01*
X87714285Y-149511904D01*
X87714285Y-149321428D01*
X87761904Y-149226190D01*
X87809523Y-149178571D01*
X87904761Y-149130952D01*
X154452857Y-136257142D02*
X154500476Y-136304761D01*
X154643333Y-136352380D01*
X154738571Y-136352380D01*
X154881428Y-136304761D01*
X154976666Y-136209523D01*
X155024285Y-136114285D01*
X155071904Y-135923809D01*
X155071904Y-135780952D01*
X155024285Y-135590476D01*
X154976666Y-135495238D01*
X154881428Y-135400000D01*
X154738571Y-135352380D01*
X154643333Y-135352380D01*
X154500476Y-135400000D01*
X154452857Y-135447619D01*
X153500476Y-136352380D02*
X154071904Y-136352380D01*
X153786190Y-136352380D02*
X153786190Y-135352380D01*
X153881428Y-135495238D01*
X153976666Y-135590476D01*
X154071904Y-135638095D01*
X152643333Y-135352380D02*
X152833809Y-135352380D01*
X152929047Y-135400000D01*
X152976666Y-135447619D01*
X153071904Y-135590476D01*
X153119523Y-135780952D01*
X153119523Y-136161904D01*
X153071904Y-136257142D01*
X153024285Y-136304761D01*
X152929047Y-136352380D01*
X152738571Y-136352380D01*
X152643333Y-136304761D01*
X152595714Y-136257142D01*
X152548095Y-136161904D01*
X152548095Y-135923809D01*
X152595714Y-135828571D01*
X152643333Y-135780952D01*
X152738571Y-135733333D01*
X152929047Y-135733333D01*
X153024285Y-135780952D01*
X153071904Y-135828571D01*
X153119523Y-135923809D01*
X92902857Y-149607142D02*
X92950476Y-149654761D01*
X93093333Y-149702380D01*
X93188571Y-149702380D01*
X93331428Y-149654761D01*
X93426666Y-149559523D01*
X93474285Y-149464285D01*
X93521904Y-149273809D01*
X93521904Y-149130952D01*
X93474285Y-148940476D01*
X93426666Y-148845238D01*
X93331428Y-148750000D01*
X93188571Y-148702380D01*
X93093333Y-148702380D01*
X92950476Y-148750000D01*
X92902857Y-148797619D01*
X91950476Y-149702380D02*
X92521904Y-149702380D01*
X92236190Y-149702380D02*
X92236190Y-148702380D01*
X92331428Y-148845238D01*
X92426666Y-148940476D01*
X92521904Y-148988095D01*
X90998095Y-149702380D02*
X91569523Y-149702380D01*
X91283809Y-149702380D02*
X91283809Y-148702380D01*
X91379047Y-148845238D01*
X91474285Y-148940476D01*
X91569523Y-148988095D01*
X83900357Y-130072380D02*
X84233690Y-129596190D01*
X84471785Y-130072380D02*
X84471785Y-129072380D01*
X84090833Y-129072380D01*
X83995595Y-129120000D01*
X83947976Y-129167619D01*
X83900357Y-129262857D01*
X83900357Y-129405714D01*
X83947976Y-129500952D01*
X83995595Y-129548571D01*
X84090833Y-129596190D01*
X84471785Y-129596190D01*
X82947976Y-130072380D02*
X83519404Y-130072380D01*
X83233690Y-130072380D02*
X83233690Y-129072380D01*
X83328928Y-129215238D01*
X83424166Y-129310476D01*
X83519404Y-129358095D01*
X82376547Y-129500952D02*
X82471785Y-129453333D01*
X82519404Y-129405714D01*
X82567023Y-129310476D01*
X82567023Y-129262857D01*
X82519404Y-129167619D01*
X82471785Y-129120000D01*
X82376547Y-129072380D01*
X82186071Y-129072380D01*
X82090833Y-129120000D01*
X82043214Y-129167619D01*
X81995595Y-129262857D01*
X81995595Y-129310476D01*
X82043214Y-129405714D01*
X82090833Y-129453333D01*
X82186071Y-129500952D01*
X82376547Y-129500952D01*
X82471785Y-129548571D01*
X82519404Y-129596190D01*
X82567023Y-129691428D01*
X82567023Y-129881904D01*
X82519404Y-129977142D01*
X82471785Y-130024761D01*
X82376547Y-130072380D01*
X82186071Y-130072380D01*
X82090833Y-130024761D01*
X82043214Y-129977142D01*
X81995595Y-129881904D01*
X81995595Y-129691428D01*
X82043214Y-129596190D01*
X82090833Y-129548571D01*
X82186071Y-129500952D01*
X96669104Y-149607142D02*
X96716723Y-149654761D01*
X96859580Y-149702380D01*
X96954818Y-149702380D01*
X97097675Y-149654761D01*
X97192913Y-149559523D01*
X97240532Y-149464285D01*
X97288151Y-149273809D01*
X97288151Y-149130952D01*
X97240532Y-148940476D01*
X97192913Y-148845238D01*
X97097675Y-148750000D01*
X96954818Y-148702380D01*
X96859580Y-148702380D01*
X96716723Y-148750000D01*
X96669104Y-148797619D01*
X95716723Y-149702380D02*
X96288151Y-149702380D01*
X96002437Y-149702380D02*
X96002437Y-148702380D01*
X96097675Y-148845238D01*
X96192913Y-148940476D01*
X96288151Y-148988095D01*
X94859580Y-149035714D02*
X94859580Y-149702380D01*
X95097675Y-148654761D02*
X95335770Y-149369047D01*
X94716723Y-149369047D01*
X146601904Y-133394880D02*
X146601904Y-134204404D01*
X146554285Y-134299642D01*
X146506666Y-134347261D01*
X146411428Y-134394880D01*
X146220952Y-134394880D01*
X146125714Y-134347261D01*
X146078095Y-134299642D01*
X146030476Y-134204404D01*
X146030476Y-133394880D01*
X145649523Y-133394880D02*
X145030476Y-133394880D01*
X145363809Y-133775833D01*
X145220952Y-133775833D01*
X145125714Y-133823452D01*
X145078095Y-133871071D01*
X145030476Y-133966309D01*
X145030476Y-134204404D01*
X145078095Y-134299642D01*
X145125714Y-134347261D01*
X145220952Y-134394880D01*
X145506666Y-134394880D01*
X145601904Y-134347261D01*
X145649523Y-134299642D01*
X95697022Y-137247142D02*
X95220832Y-136913809D01*
X95697022Y-136675714D02*
X94697022Y-136675714D01*
X94697022Y-137056666D01*
X94744642Y-137151904D01*
X94792261Y-137199523D01*
X94887499Y-137247142D01*
X95030356Y-137247142D01*
X95125594Y-137199523D01*
X95173213Y-137151904D01*
X95220832Y-137056666D01*
X95220832Y-136675714D01*
X95697022Y-138199523D02*
X95697022Y-137628095D01*
X95697022Y-137913809D02*
X94697022Y-137913809D01*
X94839880Y-137818571D01*
X94935118Y-137723333D01*
X94982737Y-137628095D01*
X95030356Y-139056666D02*
X95697022Y-139056666D01*
X94649403Y-138818571D02*
X95363689Y-138580476D01*
X95363689Y-139199523D01*
X154452857Y-140507142D02*
X154500476Y-140554761D01*
X154643333Y-140602380D01*
X154738571Y-140602380D01*
X154881428Y-140554761D01*
X154976666Y-140459523D01*
X155024285Y-140364285D01*
X155071904Y-140173809D01*
X155071904Y-140030952D01*
X155024285Y-139840476D01*
X154976666Y-139745238D01*
X154881428Y-139650000D01*
X154738571Y-139602380D01*
X154643333Y-139602380D01*
X154500476Y-139650000D01*
X154452857Y-139697619D01*
X153500476Y-140602380D02*
X154071904Y-140602380D01*
X153786190Y-140602380D02*
X153786190Y-139602380D01*
X153881428Y-139745238D01*
X153976666Y-139840476D01*
X154071904Y-139888095D01*
X152595714Y-139602380D02*
X153071904Y-139602380D01*
X153119523Y-140078571D01*
X153071904Y-140030952D01*
X152976666Y-139983333D01*
X152738571Y-139983333D01*
X152643333Y-140030952D01*
X152595714Y-140078571D01*
X152548095Y-140173809D01*
X152548095Y-140411904D01*
X152595714Y-140507142D01*
X152643333Y-140554761D01*
X152738571Y-140602380D01*
X152976666Y-140602380D01*
X153071904Y-140554761D01*
X153119523Y-140507142D01*
X122680832Y-154877142D02*
X122728451Y-154924761D01*
X122871308Y-154972380D01*
X122966546Y-154972380D01*
X123109404Y-154924761D01*
X123204642Y-154829523D01*
X123252261Y-154734285D01*
X123299880Y-154543809D01*
X123299880Y-154400952D01*
X123252261Y-154210476D01*
X123204642Y-154115238D01*
X123109404Y-154020000D01*
X122966546Y-153972380D01*
X122871308Y-153972380D01*
X122728451Y-154020000D01*
X122680832Y-154067619D01*
X122299880Y-154067619D02*
X122252261Y-154020000D01*
X122157023Y-153972380D01*
X121918927Y-153972380D01*
X121823689Y-154020000D01*
X121776070Y-154067619D01*
X121728451Y-154162857D01*
X121728451Y-154258095D01*
X121776070Y-154400952D01*
X122347499Y-154972380D01*
X121728451Y-154972380D01*
X145560708Y-146152380D02*
X145560708Y-145152380D01*
X145322613Y-145152380D01*
X145179755Y-145200000D01*
X145084517Y-145295238D01*
X145036898Y-145390476D01*
X144989279Y-145580952D01*
X144989279Y-145723809D01*
X145036898Y-145914285D01*
X145084517Y-146009523D01*
X145179755Y-146104761D01*
X145322613Y-146152380D01*
X145560708Y-146152380D01*
X144655946Y-145152380D02*
X144036898Y-145152380D01*
X144370232Y-145533333D01*
X144227374Y-145533333D01*
X144132136Y-145580952D01*
X144084517Y-145628571D01*
X144036898Y-145723809D01*
X144036898Y-145961904D01*
X144084517Y-146057142D01*
X144132136Y-146104761D01*
X144227374Y-146152380D01*
X144513089Y-146152380D01*
X144608327Y-146104761D01*
X144655946Y-146057142D01*
X168671904Y-142902380D02*
X168671904Y-141902380D01*
X168100476Y-142902380D02*
X168529047Y-142330952D01*
X168100476Y-141902380D02*
X168671904Y-142473809D01*
X131904166Y-154627142D02*
X131951785Y-154674761D01*
X132094642Y-154722380D01*
X132189880Y-154722380D01*
X132332738Y-154674761D01*
X132427976Y-154579523D01*
X132475595Y-154484285D01*
X132523214Y-154293809D01*
X132523214Y-154150952D01*
X132475595Y-153960476D01*
X132427976Y-153865238D01*
X132332738Y-153770000D01*
X132189880Y-153722380D01*
X132094642Y-153722380D01*
X131951785Y-153770000D01*
X131904166Y-153817619D01*
X130951785Y-154722380D02*
X131523214Y-154722380D01*
X131237500Y-154722380D02*
X131237500Y-153722380D01*
X131332738Y-153865238D01*
X131427976Y-153960476D01*
X131523214Y-154008095D01*
X107040357Y-128752380D02*
X107373690Y-128276190D01*
X107611785Y-128752380D02*
X107611785Y-127752380D01*
X107230833Y-127752380D01*
X107135595Y-127800000D01*
X107087976Y-127847619D01*
X107040357Y-127942857D01*
X107040357Y-128085714D01*
X107087976Y-128180952D01*
X107135595Y-128228571D01*
X107230833Y-128276190D01*
X107611785Y-128276190D01*
X106087976Y-128752380D02*
X106659404Y-128752380D01*
X106373690Y-128752380D02*
X106373690Y-127752380D01*
X106468928Y-127895238D01*
X106564166Y-127990476D01*
X106659404Y-128038095D01*
X105135595Y-128752380D02*
X105707023Y-128752380D01*
X105421309Y-128752380D02*
X105421309Y-127752380D01*
X105516547Y-127895238D01*
X105611785Y-127990476D01*
X105707023Y-128038095D01*
X99956666Y-149607142D02*
X100004285Y-149654761D01*
X100147142Y-149702380D01*
X100242380Y-149702380D01*
X100385238Y-149654761D01*
X100480476Y-149559523D01*
X100528095Y-149464285D01*
X100575714Y-149273809D01*
X100575714Y-149130952D01*
X100528095Y-148940476D01*
X100480476Y-148845238D01*
X100385238Y-148750000D01*
X100242380Y-148702380D01*
X100147142Y-148702380D01*
X100004285Y-148750000D01*
X99956666Y-148797619D01*
X99099523Y-148702380D02*
X99290000Y-148702380D01*
X99385238Y-148750000D01*
X99432857Y-148797619D01*
X99528095Y-148940476D01*
X99575714Y-149130952D01*
X99575714Y-149511904D01*
X99528095Y-149607142D01*
X99480476Y-149654761D01*
X99385238Y-149702380D01*
X99194761Y-149702380D01*
X99099523Y-149654761D01*
X99051904Y-149607142D01*
X99004285Y-149511904D01*
X99004285Y-149273809D01*
X99051904Y-149178571D01*
X99099523Y-149130952D01*
X99194761Y-149083333D01*
X99385238Y-149083333D01*
X99480476Y-149130952D01*
X99528095Y-149178571D01*
X99575714Y-149273809D01*
X78725594Y-137207142D02*
X78249404Y-136873809D01*
X78725594Y-136635714D02*
X77725594Y-136635714D01*
X77725594Y-137016666D01*
X77773214Y-137111904D01*
X77820833Y-137159523D01*
X77916071Y-137207142D01*
X78058928Y-137207142D01*
X78154166Y-137159523D01*
X78201785Y-137111904D01*
X78249404Y-137016666D01*
X78249404Y-136635714D01*
X78725594Y-138159523D02*
X78725594Y-137588095D01*
X78725594Y-137873809D02*
X77725594Y-137873809D01*
X77868452Y-137778571D01*
X77963690Y-137683333D01*
X78011309Y-137588095D01*
X77725594Y-138492857D02*
X77725594Y-139111904D01*
X78106547Y-138778571D01*
X78106547Y-138921428D01*
X78154166Y-139016666D01*
X78201785Y-139064285D01*
X78297023Y-139111904D01*
X78535118Y-139111904D01*
X78630356Y-139064285D01*
X78677975Y-139016666D01*
X78725594Y-138921428D01*
X78725594Y-138635714D01*
X78677975Y-138540476D01*
X78630356Y-138492857D01*
X106614166Y-147092380D02*
X106947500Y-146616190D01*
X107185595Y-147092380D02*
X107185595Y-146092380D01*
X106804642Y-146092380D01*
X106709404Y-146140000D01*
X106661785Y-146187619D01*
X106614166Y-146282857D01*
X106614166Y-146425714D01*
X106661785Y-146520952D01*
X106709404Y-146568571D01*
X106804642Y-146616190D01*
X107185595Y-146616190D01*
X105709404Y-146092380D02*
X106185595Y-146092380D01*
X106233214Y-146568571D01*
X106185595Y-146520952D01*
X106090357Y-146473333D01*
X105852261Y-146473333D01*
X105757023Y-146520952D01*
X105709404Y-146568571D01*
X105661785Y-146663809D01*
X105661785Y-146901904D01*
X105709404Y-146997142D01*
X105757023Y-147044761D01*
X105852261Y-147092380D01*
X106090357Y-147092380D01*
X106185595Y-147044761D01*
X106233214Y-146997142D01*
X73616666Y-149607142D02*
X73664285Y-149654761D01*
X73807142Y-149702380D01*
X73902380Y-149702380D01*
X74045238Y-149654761D01*
X74140476Y-149559523D01*
X74188095Y-149464285D01*
X74235714Y-149273809D01*
X74235714Y-149130952D01*
X74188095Y-148940476D01*
X74140476Y-148845238D01*
X74045238Y-148750000D01*
X73902380Y-148702380D01*
X73807142Y-148702380D01*
X73664285Y-148750000D01*
X73616666Y-148797619D01*
X73283333Y-148702380D02*
X72616666Y-148702380D01*
X73045238Y-149702380D01*
X153956666Y-146207142D02*
X154004285Y-146254761D01*
X154147142Y-146302380D01*
X154242380Y-146302380D01*
X154385238Y-146254761D01*
X154480476Y-146159523D01*
X154528095Y-146064285D01*
X154575714Y-145873809D01*
X154575714Y-145730952D01*
X154528095Y-145540476D01*
X154480476Y-145445238D01*
X154385238Y-145350000D01*
X154242380Y-145302380D01*
X154147142Y-145302380D01*
X154004285Y-145350000D01*
X153956666Y-145397619D01*
X153480476Y-146302380D02*
X153290000Y-146302380D01*
X153194761Y-146254761D01*
X153147142Y-146207142D01*
X153051904Y-146064285D01*
X153004285Y-145873809D01*
X153004285Y-145492857D01*
X153051904Y-145397619D01*
X153099523Y-145350000D01*
X153194761Y-145302380D01*
X153385238Y-145302380D01*
X153480476Y-145350000D01*
X153528095Y-145397619D01*
X153575714Y-145492857D01*
X153575714Y-145730952D01*
X153528095Y-145826190D01*
X153480476Y-145873809D01*
X153385238Y-145921428D01*
X153194761Y-145921428D01*
X153099523Y-145873809D01*
X153051904Y-145826190D01*
X153004285Y-145730952D01*
X118499880Y-150223333D02*
X118023690Y-149890000D01*
X118499880Y-149651904D02*
X117499880Y-149651904D01*
X117499880Y-150032857D01*
X117547500Y-150128095D01*
X117595119Y-150175714D01*
X117690357Y-150223333D01*
X117833214Y-150223333D01*
X117928452Y-150175714D01*
X117976071Y-150128095D01*
X118023690Y-150032857D01*
X118023690Y-149651904D01*
X117595119Y-150604285D02*
X117547500Y-150651904D01*
X117499880Y-150747142D01*
X117499880Y-150985238D01*
X117547500Y-151080476D01*
X117595119Y-151128095D01*
X117690357Y-151175714D01*
X117785595Y-151175714D01*
X117928452Y-151128095D01*
X118499880Y-150556666D01*
X118499880Y-151175714D01*
X106856666Y-122907142D02*
X106904285Y-122954761D01*
X107047142Y-123002380D01*
X107142380Y-123002380D01*
X107285238Y-122954761D01*
X107380476Y-122859523D01*
X107428095Y-122764285D01*
X107475714Y-122573809D01*
X107475714Y-122430952D01*
X107428095Y-122240476D01*
X107380476Y-122145238D01*
X107285238Y-122050000D01*
X107142380Y-122002380D01*
X107047142Y-122002380D01*
X106904285Y-122050000D01*
X106856666Y-122097619D01*
X106523333Y-122002380D02*
X105904285Y-122002380D01*
X106237619Y-122383333D01*
X106094761Y-122383333D01*
X105999523Y-122430952D01*
X105951904Y-122478571D01*
X105904285Y-122573809D01*
X105904285Y-122811904D01*
X105951904Y-122907142D01*
X105999523Y-122954761D01*
X106094761Y-123002380D01*
X106380476Y-123002380D01*
X106475714Y-122954761D01*
X106523333Y-122907142D01*
X87271308Y-137773333D02*
X86795118Y-137440000D01*
X87271308Y-137201904D02*
X86271308Y-137201904D01*
X86271308Y-137582857D01*
X86318928Y-137678095D01*
X86366547Y-137725714D01*
X86461785Y-137773333D01*
X86604642Y-137773333D01*
X86699880Y-137725714D01*
X86747499Y-137678095D01*
X86795118Y-137582857D01*
X86795118Y-137201904D01*
X86271308Y-138106666D02*
X86271308Y-138773333D01*
X87271308Y-138344761D01*
X106604166Y-136052380D02*
X106937500Y-135576190D01*
X107175595Y-136052380D02*
X107175595Y-135052380D01*
X106794642Y-135052380D01*
X106699404Y-135100000D01*
X106651785Y-135147619D01*
X106604166Y-135242857D01*
X106604166Y-135385714D01*
X106651785Y-135480952D01*
X106699404Y-135528571D01*
X106794642Y-135576190D01*
X107175595Y-135576190D01*
X106032738Y-135480952D02*
X106127976Y-135433333D01*
X106175595Y-135385714D01*
X106223214Y-135290476D01*
X106223214Y-135242857D01*
X106175595Y-135147619D01*
X106127976Y-135100000D01*
X106032738Y-135052380D01*
X105842261Y-135052380D01*
X105747023Y-135100000D01*
X105699404Y-135147619D01*
X105651785Y-135242857D01*
X105651785Y-135290476D01*
X105699404Y-135385714D01*
X105747023Y-135433333D01*
X105842261Y-135480952D01*
X106032738Y-135480952D01*
X106127976Y-135528571D01*
X106175595Y-135576190D01*
X106223214Y-135671428D01*
X106223214Y-135861904D01*
X106175595Y-135957142D01*
X106127976Y-136004761D01*
X106032738Y-136052380D01*
X105842261Y-136052380D01*
X105747023Y-136004761D01*
X105699404Y-135957142D01*
X105651785Y-135861904D01*
X105651785Y-135671428D01*
X105699404Y-135576190D01*
X105747023Y-135528571D01*
X105842261Y-135480952D01*
X106594166Y-139752380D02*
X106927500Y-139276190D01*
X107165595Y-139752380D02*
X107165595Y-138752380D01*
X106784642Y-138752380D01*
X106689404Y-138800000D01*
X106641785Y-138847619D01*
X106594166Y-138942857D01*
X106594166Y-139085714D01*
X106641785Y-139180952D01*
X106689404Y-139228571D01*
X106784642Y-139276190D01*
X107165595Y-139276190D01*
X106260833Y-138752380D02*
X105641785Y-138752380D01*
X105975119Y-139133333D01*
X105832261Y-139133333D01*
X105737023Y-139180952D01*
X105689404Y-139228571D01*
X105641785Y-139323809D01*
X105641785Y-139561904D01*
X105689404Y-139657142D01*
X105737023Y-139704761D01*
X105832261Y-139752380D01*
X106117976Y-139752380D01*
X106213214Y-139704761D01*
X106260833Y-139657142D01*
X81614106Y-149607142D02*
X81661725Y-149654761D01*
X81804582Y-149702380D01*
X81899820Y-149702380D01*
X82042677Y-149654761D01*
X82137915Y-149559523D01*
X82185534Y-149464285D01*
X82233153Y-149273809D01*
X82233153Y-149130952D01*
X82185534Y-148940476D01*
X82137915Y-148845238D01*
X82042677Y-148750000D01*
X81899820Y-148702380D01*
X81804582Y-148702380D01*
X81661725Y-148750000D01*
X81614106Y-148797619D01*
X80661725Y-149702380D02*
X81233153Y-149702380D01*
X80947439Y-149702380D02*
X80947439Y-148702380D01*
X81042677Y-148845238D01*
X81137915Y-148940476D01*
X81233153Y-148988095D01*
X80328391Y-148702380D02*
X79709344Y-148702380D01*
X80042677Y-149083333D01*
X79899820Y-149083333D01*
X79804582Y-149130952D01*
X79756963Y-149178571D01*
X79709344Y-149273809D01*
X79709344Y-149511904D01*
X79756963Y-149607142D01*
X79804582Y-149654761D01*
X79899820Y-149702380D01*
X80185534Y-149702380D01*
X80280772Y-149654761D01*
X80328391Y-149607142D01*
X70219880Y-137773333D02*
X69743690Y-137440000D01*
X70219880Y-137201904D02*
X69219880Y-137201904D01*
X69219880Y-137582857D01*
X69267500Y-137678095D01*
X69315119Y-137725714D01*
X69410357Y-137773333D01*
X69553214Y-137773333D01*
X69648452Y-137725714D01*
X69696071Y-137678095D01*
X69743690Y-137582857D01*
X69743690Y-137201904D01*
X69219880Y-138630476D02*
X69219880Y-138440000D01*
X69267500Y-138344761D01*
X69315119Y-138297142D01*
X69457976Y-138201904D01*
X69648452Y-138154285D01*
X70029404Y-138154285D01*
X70124642Y-138201904D01*
X70172261Y-138249523D01*
X70219880Y-138344761D01*
X70219880Y-138535238D01*
X70172261Y-138630476D01*
X70124642Y-138678095D01*
X70029404Y-138725714D01*
X69791309Y-138725714D01*
X69696071Y-138678095D01*
X69648452Y-138630476D01*
X69600833Y-138535238D01*
X69600833Y-138344761D01*
X69648452Y-138249523D01*
X69696071Y-138201904D01*
X69791309Y-138154285D01*
D11*
X101007500Y-141240000D02*
X100677500Y-141240000D01*
X98267500Y-134700000D02*
X98267500Y-141240000D01*
X100677500Y-134700000D02*
X101007500Y-134700000D01*
X98597500Y-134700000D02*
X98267500Y-134700000D01*
X98267500Y-141240000D02*
X98597500Y-141240000D01*
X101007500Y-134700000D02*
X101007500Y-141240000D01*
X72630357Y-141240000D02*
X72960357Y-141240000D01*
X72960357Y-134700000D02*
X72630357Y-134700000D01*
X75370357Y-134700000D02*
X75370357Y-141240000D01*
X75040357Y-134700000D02*
X75370357Y-134700000D01*
X75370357Y-141240000D02*
X75040357Y-141240000D01*
X72630357Y-134700000D02*
X72630357Y-141240000D01*
X83937500Y-148250000D02*
X83312500Y-148250000D01*
X86152500Y-148250000D02*
X85527500Y-148250000D01*
X83937500Y-144210000D02*
X83312500Y-144210000D01*
X86152500Y-144210000D02*
X85527500Y-144210000D01*
X83312500Y-148250000D02*
X83312500Y-144210000D01*
X86152500Y-148250000D02*
X86152500Y-144210000D01*
X69917500Y-128170000D02*
X76457500Y-128170000D01*
X76457500Y-130910000D02*
X76457500Y-130580000D01*
X69917500Y-128500000D02*
X69917500Y-128170000D01*
X69917500Y-130580000D02*
X69917500Y-130910000D01*
X69917500Y-130910000D02*
X76457500Y-130910000D01*
X76457500Y-128170000D02*
X76457500Y-128500000D01*
X128550832Y-147160000D02*
X128550832Y-153700000D01*
X128220832Y-147160000D02*
X128550832Y-147160000D01*
X125810832Y-153700000D02*
X126140832Y-153700000D01*
X125810832Y-147160000D02*
X125810832Y-153700000D01*
X126140832Y-147160000D02*
X125810832Y-147160000D01*
X128550832Y-153700000D02*
X128220832Y-153700000D01*
X103167500Y-141570000D02*
X103167500Y-141900000D01*
X109707500Y-143980000D02*
X109707500Y-144310000D01*
X109707500Y-141570000D02*
X103167500Y-141570000D01*
X109707500Y-144310000D02*
X103167500Y-144310000D01*
X109707500Y-141900000D02*
X109707500Y-141570000D01*
X103167500Y-144310000D02*
X103167500Y-143980000D01*
X83586071Y-134700000D02*
X83916071Y-134700000D01*
X83916071Y-134700000D02*
X83916071Y-141240000D01*
X83916071Y-141240000D02*
X83586071Y-141240000D01*
X81506071Y-134700000D02*
X81176071Y-134700000D01*
X81176071Y-134700000D02*
X81176071Y-141240000D01*
X81176071Y-141240000D02*
X81506071Y-141240000D01*
X93852500Y-132190000D02*
X94477500Y-132190000D01*
X91637500Y-128150000D02*
X91637500Y-132190000D01*
X93852500Y-128150000D02*
X94477500Y-128150000D01*
X91637500Y-132190000D02*
X92262500Y-132190000D01*
X94477500Y-128150000D02*
X94477500Y-132190000D01*
X91637500Y-128150000D02*
X92262500Y-128150000D01*
X92131785Y-134700000D02*
X92461785Y-134700000D01*
X90051785Y-134700000D02*
X89721785Y-134700000D01*
X89721785Y-141240000D02*
X90051785Y-141240000D01*
X89721785Y-134700000D02*
X89721785Y-141240000D01*
X92461785Y-134700000D02*
X92461785Y-141240000D01*
X92461785Y-141240000D02*
X92131785Y-141240000D01*
X71097500Y-148250000D02*
X71097500Y-144210000D01*
X68882500Y-144210000D02*
X68257500Y-144210000D01*
X68882500Y-148250000D02*
X68257500Y-148250000D01*
X71097500Y-148250000D02*
X70472500Y-148250000D01*
X68257500Y-148250000D02*
X68257500Y-144210000D01*
X71097500Y-144210000D02*
X70472500Y-144210000D01*
X103167500Y-132970000D02*
X103167500Y-133300000D01*
X103167500Y-130560000D02*
X109707500Y-130560000D01*
X103167500Y-133300000D02*
X109707500Y-133300000D01*
X109707500Y-130560000D02*
X109707500Y-130890000D01*
X109707500Y-133300000D02*
X109707500Y-132970000D01*
X103167500Y-130890000D02*
X103167500Y-130560000D01*
X78625000Y-148250000D02*
X78000000Y-148250000D01*
X76410000Y-144210000D02*
X75785000Y-144210000D01*
X78625000Y-148250000D02*
X78625000Y-144210000D01*
X78625000Y-144210000D02*
X78000000Y-144210000D01*
X76410000Y-148250000D02*
X75785000Y-148250000D01*
X75785000Y-148250000D02*
X75785000Y-144210000D01*
X87701250Y-144210000D02*
X87076250Y-144210000D01*
X89916250Y-144210000D02*
X89291250Y-144210000D01*
X89916250Y-148250000D02*
X89916250Y-144210000D01*
X87701250Y-148250000D02*
X87076250Y-148250000D01*
X89916250Y-148250000D02*
X89291250Y-148250000D01*
X87076250Y-148250000D02*
X87076250Y-144210000D01*
X155377500Y-137275000D02*
X155377500Y-136650000D01*
X155377500Y-136650000D02*
X159417500Y-136650000D01*
X155377500Y-139490000D02*
X155377500Y-138865000D01*
X159417500Y-137275000D02*
X159417500Y-136650000D01*
X159417500Y-139490000D02*
X159417500Y-138865000D01*
X155377500Y-139490000D02*
X159417500Y-139490000D01*
X91465000Y-148250000D02*
X90840000Y-148250000D01*
X93680000Y-144210000D02*
X93055000Y-144210000D01*
X93680000Y-148250000D02*
X93680000Y-144210000D01*
X90840000Y-148250000D02*
X90840000Y-144210000D01*
X91465000Y-144210000D02*
X90840000Y-144210000D01*
X93680000Y-148250000D02*
X93055000Y-148250000D01*
X80187500Y-128170000D02*
X86727500Y-128170000D01*
X80187500Y-130580000D02*
X80187500Y-130910000D01*
X86727500Y-128170000D02*
X86727500Y-128500000D01*
X80187500Y-130910000D02*
X86727500Y-130910000D01*
X80187500Y-128500000D02*
X80187500Y-128170000D01*
X86727500Y-130910000D02*
X86727500Y-130580000D01*
X97443750Y-144210000D02*
X96818750Y-144210000D01*
X97443750Y-148250000D02*
X97443750Y-144210000D01*
X95228750Y-144210000D02*
X94603750Y-144210000D01*
X97443750Y-148250000D02*
X96818750Y-148250000D01*
X95228750Y-148250000D02*
X94603750Y-148250000D01*
X94603750Y-148250000D02*
X94603750Y-144210000D01*
X147277000Y-137702000D02*
X146942000Y-137702000D01*
X151090000Y-134942000D02*
X151090000Y-139883000D01*
X151090000Y-134942000D02*
X140590000Y-134942000D01*
X140590000Y-134942000D02*
X140590000Y-139883000D01*
X143989000Y-134942000D02*
X143989000Y-136960000D01*
X147690000Y-134942000D02*
X147690000Y-136960000D01*
X151090000Y-137702000D02*
X149483000Y-137702000D01*
X151090000Y-139883000D02*
X140590000Y-139883000D01*
X142197000Y-137702000D02*
X140590000Y-137702000D01*
X144737000Y-137702000D02*
X144402000Y-137702000D01*
X96734642Y-134700000D02*
X96734642Y-141240000D01*
X94324642Y-134700000D02*
X93994642Y-134700000D01*
X93994642Y-134700000D02*
X93994642Y-141240000D01*
X96734642Y-141240000D02*
X96404642Y-141240000D01*
X96404642Y-134700000D02*
X96734642Y-134700000D01*
X93994642Y-141240000D02*
X94324642Y-141240000D01*
X157968500Y-132280000D02*
X157968500Y-130840000D01*
X157247500Y-132280000D02*
X157247500Y-130740000D01*
X157927500Y-132280000D02*
X157927500Y-130829000D01*
X158288500Y-135685000D02*
X158288500Y-134360000D01*
X157567500Y-132280000D02*
X157567500Y-130759000D01*
X158888500Y-132280000D02*
X158888500Y-131316000D01*
X158328500Y-132280000D02*
X158328500Y-130972000D01*
X159608500Y-134418000D02*
X159608500Y-132222000D01*
X157687500Y-135863000D02*
X157687500Y-134360000D01*
X159728500Y-134125000D02*
X159728500Y-132515000D01*
X158728500Y-132280000D02*
X158728500Y-131198000D01*
X159288500Y-134925000D02*
X159288500Y-131715000D01*
X157847500Y-135831000D02*
X157847500Y-134360000D01*
X157887500Y-135821000D02*
X157887500Y-134360000D01*
X158968500Y-135257000D02*
X158968500Y-134360000D01*
X158528500Y-132280000D02*
X158528500Y-131073000D01*
X157367500Y-135898000D02*
X157367500Y-134360000D01*
X159208500Y-135019000D02*
X159208500Y-134360000D01*
X158888500Y-135324000D02*
X158888500Y-134360000D01*
X157287500Y-132280000D02*
X157287500Y-130740000D01*
X159528500Y-134571000D02*
X159528500Y-132069000D01*
X159688500Y-134235000D02*
X159688500Y-132405000D01*
X157727500Y-132280000D02*
X157727500Y-130784000D01*
X158048500Y-132280000D02*
X158048500Y-130865000D01*
X158808500Y-132280000D02*
X158808500Y-131255000D01*
X158128500Y-135748000D02*
X158128500Y-134360000D01*
X158488500Y-132280000D02*
X158488500Y-131052000D01*
X157287500Y-135900000D02*
X157287500Y-134360000D01*
X159168500Y-132280000D02*
X159168500Y-131577000D01*
X158808500Y-135385000D02*
X158808500Y-134360000D01*
X157887500Y-132280000D02*
X157887500Y-130819000D01*
X158008500Y-132280000D02*
X158008500Y-130852000D01*
X158768500Y-132280000D02*
X158768500Y-131225000D01*
X159848500Y-133604000D02*
X159848500Y-133036000D01*
X159088500Y-132280000D02*
X159088500Y-131494000D01*
X157527500Y-135885000D02*
X157527500Y-134360000D01*
X158568500Y-132280000D02*
X158568500Y-131096000D01*
X159328500Y-134874000D02*
X159328500Y-131766000D01*
X157647500Y-135870000D02*
X157647500Y-134360000D01*
X159368500Y-134820000D02*
X159368500Y-131820000D01*
X157447500Y-132280000D02*
X157447500Y-130747000D01*
X157968500Y-135800000D02*
X157968500Y-134360000D01*
X158968500Y-132280000D02*
X158968500Y-131383000D01*
X158408500Y-132280000D02*
X158408500Y-131010000D01*
X157407500Y-135896000D02*
X157407500Y-134360000D01*
X158608500Y-135520000D02*
X158608500Y-134360000D01*
X157487500Y-132280000D02*
X157487500Y-130751000D01*
X158768500Y-135415000D02*
X158768500Y-134360000D01*
X158288500Y-132280000D02*
X158288500Y-130955000D01*
X157927500Y-135811000D02*
X157927500Y-134360000D01*
X158088500Y-135762000D02*
X158088500Y-134360000D01*
X159168500Y-135063000D02*
X159168500Y-134360000D01*
X158128500Y-132280000D02*
X158128500Y-130892000D01*
X157447500Y-135893000D02*
X157447500Y-134360000D01*
X157327500Y-132280000D02*
X157327500Y-130741000D01*
X158528500Y-135567000D02*
X158528500Y-134360000D01*
X158368500Y-135649000D02*
X158368500Y-134360000D01*
X158368500Y-132280000D02*
X158368500Y-130991000D01*
X158928500Y-135291000D02*
X158928500Y-134360000D01*
X159448500Y-134703000D02*
X159448500Y-131937000D01*
X157647500Y-132280000D02*
X157647500Y-130770000D01*
X158688500Y-132280000D02*
X158688500Y-131171000D01*
X159248500Y-132280000D02*
X159248500Y-131667000D01*
X159568500Y-134498000D02*
X159568500Y-132142000D01*
X158408500Y-135630000D02*
X158408500Y-134360000D01*
X157807500Y-135840000D02*
X157807500Y-134360000D01*
X158848500Y-132280000D02*
X158848500Y-131285000D01*
X159208500Y-132280000D02*
X159208500Y-131621000D01*
X157687500Y-132280000D02*
X157687500Y-130777000D01*
X158048500Y-135775000D02*
X158048500Y-134360000D01*
X157367500Y-132280000D02*
X157367500Y-130742000D01*
X158448500Y-135610000D02*
X158448500Y-134360000D01*
X157527500Y-132280000D02*
X157527500Y-130755000D01*
X159248500Y-134973000D02*
X159248500Y-134360000D01*
X158448500Y-132280000D02*
X158448500Y-131030000D01*
X157767500Y-132280000D02*
X157767500Y-130792000D01*
X159808500Y-133838000D02*
X159808500Y-132802000D01*
X158848500Y-135355000D02*
X158848500Y-134360000D01*
X158928500Y-132280000D02*
X158928500Y-131349000D01*
X159088500Y-135146000D02*
X159088500Y-134360000D01*
X158208500Y-135718000D02*
X158208500Y-134360000D01*
X158248500Y-132280000D02*
X158248500Y-130938000D01*
X158168500Y-135734000D02*
X158168500Y-134360000D01*
X158648500Y-135495000D02*
X158648500Y-134360000D01*
X157407500Y-132280000D02*
X157407500Y-130744000D01*
X157607500Y-135876000D02*
X157607500Y-134360000D01*
X157807500Y-132280000D02*
X157807500Y-130800000D01*
X159488500Y-134639000D02*
X159488500Y-132001000D01*
X159408500Y-134763000D02*
X159408500Y-131877000D01*
X157567500Y-135881000D02*
X157567500Y-134360000D01*
X158568500Y-135544000D02*
X158568500Y-134360000D01*
X158248500Y-135702000D02*
X158248500Y-134360000D01*
X159008500Y-135221000D02*
X159008500Y-134360000D01*
X158088500Y-132280000D02*
X158088500Y-130878000D01*
X157247500Y-135900000D02*
X157247500Y-134360000D01*
X158008500Y-135788000D02*
X158008500Y-134360000D01*
X159008500Y-132280000D02*
X159008500Y-131419000D01*
X157727500Y-135856000D02*
X157727500Y-134360000D01*
X158328500Y-135668000D02*
X158328500Y-134360000D01*
X154442725Y-134795000D02*
X154942725Y-134795000D01*
X158608500Y-132280000D02*
X158608500Y-131120000D01*
X154692725Y-135045000D02*
X154692725Y-134545000D01*
X159768500Y-133997000D02*
X159768500Y-132643000D01*
X157847500Y-132280000D02*
X157847500Y-130809000D01*
X159048500Y-135184000D02*
X159048500Y-134360000D01*
X158688500Y-135469000D02*
X158688500Y-134360000D01*
X159128500Y-132280000D02*
X159128500Y-131535000D01*
X157487500Y-135889000D02*
X157487500Y-134360000D01*
X157607500Y-132280000D02*
X157607500Y-130764000D01*
X159048500Y-132280000D02*
X159048500Y-131456000D01*
X157767500Y-135848000D02*
X157767500Y-134360000D01*
X159648500Y-134331000D02*
X159648500Y-132309000D01*
X158168500Y-132280000D02*
X158168500Y-130906000D01*
X158208500Y-132280000D02*
X158208500Y-130922000D01*
X158728500Y-135442000D02*
X158728500Y-134360000D01*
X157327500Y-135899000D02*
X157327500Y-134360000D01*
X158648500Y-132280000D02*
X158648500Y-131145000D01*
X158488500Y-135588000D02*
X158488500Y-134360000D01*
X159128500Y-135105000D02*
X159128500Y-134360000D01*
X159867500Y-133320000D02*
G75*
G03*
X159867500Y-133320000I-2620000J0D01*
G01*
X121194166Y-148410000D02*
X121819166Y-148410000D01*
X121194166Y-152450000D02*
X121819166Y-152450000D01*
X123409166Y-148410000D02*
X124034166Y-148410000D01*
X121194166Y-148410000D02*
X121194166Y-152450000D01*
X124034166Y-148410000D02*
X124034166Y-152450000D01*
X123409166Y-152450000D02*
X124034166Y-152450000D01*
X147022613Y-141750000D02*
X147022613Y-144690000D01*
X147922613Y-144690000D02*
X142482613Y-144690000D01*
X147142613Y-141750000D02*
X147142613Y-144690000D01*
X150212613Y-143220000D02*
X147922613Y-143220000D01*
X142482613Y-141750000D02*
X147922613Y-141750000D01*
X147922613Y-141750000D02*
X147922613Y-144690000D01*
X140192613Y-143220000D02*
X142482613Y-143220000D01*
X142482613Y-144690000D02*
X142482613Y-141750000D01*
X146902613Y-141750000D02*
X146902613Y-144690000D01*
X130327500Y-152450000D02*
X130952500Y-152450000D01*
X132542500Y-148410000D02*
X133167500Y-148410000D01*
X130327500Y-148410000D02*
X130327500Y-152450000D01*
X130327500Y-148410000D02*
X130952500Y-148410000D01*
X132542500Y-152450000D02*
X133167500Y-152450000D01*
X133167500Y-148410000D02*
X133167500Y-152450000D01*
X103167500Y-129630000D02*
X103167500Y-129300000D01*
X109707500Y-127220000D02*
X109707500Y-126890000D01*
X109707500Y-126890000D02*
X103167500Y-126890000D01*
X109707500Y-129300000D02*
X109707500Y-129630000D01*
X103167500Y-126890000D02*
X103167500Y-127220000D01*
X109707500Y-129630000D02*
X103167500Y-129630000D01*
X101207500Y-148250000D02*
X101207500Y-144210000D01*
X98992500Y-144210000D02*
X98367500Y-144210000D01*
X98992500Y-148250000D02*
X98367500Y-148250000D01*
X101207500Y-144210000D02*
X100582500Y-144210000D01*
X98367500Y-148250000D02*
X98367500Y-144210000D01*
X101207500Y-148250000D02*
X100582500Y-148250000D01*
X76903214Y-141240000D02*
X77233214Y-141240000D01*
X79643214Y-141240000D02*
X79313214Y-141240000D01*
X77233214Y-134700000D02*
X76903214Y-134700000D01*
X79643214Y-134700000D02*
X79643214Y-141240000D01*
X79313214Y-134700000D02*
X79643214Y-134700000D01*
X76903214Y-134700000D02*
X76903214Y-141240000D01*
X109707500Y-147980000D02*
X109707500Y-147650000D01*
X103167500Y-145240000D02*
X109707500Y-145240000D01*
X103167500Y-147980000D02*
X109707500Y-147980000D01*
X103167500Y-147650000D02*
X103167500Y-147980000D01*
X103167500Y-145570000D02*
X103167500Y-145240000D01*
X109707500Y-145240000D02*
X109707500Y-145570000D01*
X74861250Y-144210000D02*
X74236250Y-144210000D01*
X74861250Y-148250000D02*
X74236250Y-148250000D01*
X72021250Y-148250000D02*
X72021250Y-144210000D01*
X72646250Y-148250000D02*
X72021250Y-148250000D01*
X74861250Y-148250000D02*
X74861250Y-144210000D01*
X72646250Y-144210000D02*
X72021250Y-144210000D01*
X158213388Y-145549000D02*
X158213388Y-144260000D01*
X157132388Y-142180000D02*
X157132388Y-140640000D01*
X158573388Y-145342000D02*
X158573388Y-144260000D01*
X158773388Y-142180000D02*
X158773388Y-141249000D01*
X158053388Y-145618000D02*
X158053388Y-144260000D01*
X157973388Y-142180000D02*
X157973388Y-140792000D01*
X158333388Y-145488000D02*
X158333388Y-144260000D01*
X158533388Y-142180000D02*
X158533388Y-141071000D01*
X157893388Y-142180000D02*
X157893388Y-140765000D01*
X157973388Y-145648000D02*
X157973388Y-144260000D01*
X158613388Y-145315000D02*
X158613388Y-144260000D01*
X158653388Y-142180000D02*
X158653388Y-141155000D01*
X158813388Y-142180000D02*
X158813388Y-141283000D01*
X157813388Y-142180000D02*
X157813388Y-140740000D01*
X157893388Y-145675000D02*
X157893388Y-144260000D01*
X158533388Y-145369000D02*
X158533388Y-144260000D01*
X159373388Y-144471000D02*
X159373388Y-141969000D01*
X157132388Y-145800000D02*
X157132388Y-144260000D01*
X159573388Y-144025000D02*
X159573388Y-142415000D01*
X157813388Y-145700000D02*
X157813388Y-144260000D01*
X158133388Y-145585000D02*
X158133388Y-144260000D01*
X159133388Y-144825000D02*
X159133388Y-141615000D01*
X157692388Y-145731000D02*
X157692388Y-144260000D01*
X159413388Y-144398000D02*
X159413388Y-142042000D01*
X157732388Y-145721000D02*
X157732388Y-144260000D01*
X158653388Y-145285000D02*
X158653388Y-144260000D01*
X157532388Y-142180000D02*
X157532388Y-140677000D01*
X158093388Y-145602000D02*
X158093388Y-144260000D01*
X159053388Y-142180000D02*
X159053388Y-141521000D01*
X158853388Y-142180000D02*
X158853388Y-141319000D01*
X158933388Y-145046000D02*
X158933388Y-144260000D01*
X159293388Y-144603000D02*
X159293388Y-141837000D01*
X158493388Y-142180000D02*
X158493388Y-141045000D01*
X159093388Y-142180000D02*
X159093388Y-141567000D01*
X159613388Y-143897000D02*
X159613388Y-142543000D01*
X157172388Y-145799000D02*
X157172388Y-144260000D01*
X157292388Y-142180000D02*
X157292388Y-140647000D01*
X159333388Y-144539000D02*
X159333388Y-141901000D01*
X159653388Y-143738000D02*
X159653388Y-142702000D01*
X158413388Y-142180000D02*
X158413388Y-140996000D01*
X159213388Y-144720000D02*
X159213388Y-141720000D01*
X158693388Y-145255000D02*
X158693388Y-144260000D01*
X158373388Y-142180000D02*
X158373388Y-140973000D01*
X154287613Y-144695000D02*
X154787613Y-144695000D01*
X157452388Y-145776000D02*
X157452388Y-144260000D01*
X157572388Y-145756000D02*
X157572388Y-144260000D01*
X154537613Y-144945000D02*
X154537613Y-144445000D01*
X157252388Y-145796000D02*
X157252388Y-144260000D01*
X158333388Y-142180000D02*
X158333388Y-140952000D01*
X157933388Y-142180000D02*
X157933388Y-140778000D01*
X157492388Y-145770000D02*
X157492388Y-144260000D01*
X157652388Y-142180000D02*
X157652388Y-140700000D01*
X158053388Y-142180000D02*
X158053388Y-140822000D01*
X158413388Y-145444000D02*
X158413388Y-144260000D01*
X157853388Y-142180000D02*
X157853388Y-140752000D01*
X158373388Y-145467000D02*
X158373388Y-144260000D01*
X158013388Y-145634000D02*
X158013388Y-144260000D01*
X158893388Y-142180000D02*
X158893388Y-141356000D01*
X157332388Y-145789000D02*
X157332388Y-144260000D01*
X157372388Y-142180000D02*
X157372388Y-140655000D01*
X159013388Y-142180000D02*
X159013388Y-141477000D01*
X157933388Y-145662000D02*
X157933388Y-144260000D01*
X157532388Y-145763000D02*
X157532388Y-144260000D01*
X157612388Y-142180000D02*
X157612388Y-140692000D01*
X158453388Y-142180000D02*
X158453388Y-141020000D01*
X157092388Y-142180000D02*
X157092388Y-140640000D01*
X159013388Y-144963000D02*
X159013388Y-144260000D01*
X159093388Y-144873000D02*
X159093388Y-144260000D01*
X157292388Y-145793000D02*
X157292388Y-144260000D01*
X157332388Y-142180000D02*
X157332388Y-140651000D01*
X157772388Y-142180000D02*
X157772388Y-140729000D01*
X157853388Y-145688000D02*
X157853388Y-144260000D01*
X157772388Y-145711000D02*
X157772388Y-144260000D01*
X159453388Y-144318000D02*
X159453388Y-142122000D01*
X158693388Y-142180000D02*
X158693388Y-141185000D01*
X158493388Y-145395000D02*
X158493388Y-144260000D01*
X158453388Y-145420000D02*
X158453388Y-144260000D01*
X158973388Y-142180000D02*
X158973388Y-141435000D01*
X158773388Y-145191000D02*
X158773388Y-144260000D01*
X157412388Y-142180000D02*
X157412388Y-140659000D01*
X157732388Y-142180000D02*
X157732388Y-140719000D01*
X158173388Y-142180000D02*
X158173388Y-140872000D01*
X157212388Y-142180000D02*
X157212388Y-140642000D01*
X157372388Y-145785000D02*
X157372388Y-144260000D01*
X157212388Y-145798000D02*
X157212388Y-144260000D01*
X158253388Y-145530000D02*
X158253388Y-144260000D01*
X157572388Y-142180000D02*
X157572388Y-140684000D01*
X159053388Y-144919000D02*
X159053388Y-144260000D01*
X157172388Y-142180000D02*
X157172388Y-140641000D01*
X158213388Y-142180000D02*
X158213388Y-140891000D01*
X159693388Y-143504000D02*
X159693388Y-142936000D01*
X158733388Y-142180000D02*
X158733388Y-141216000D01*
X159493388Y-144231000D02*
X159493388Y-142209000D01*
X158933388Y-142180000D02*
X158933388Y-141394000D01*
X158133388Y-142180000D02*
X158133388Y-140855000D01*
X158293388Y-145510000D02*
X158293388Y-144260000D01*
X157652388Y-145740000D02*
X157652388Y-144260000D01*
X157412388Y-145781000D02*
X157412388Y-144260000D01*
X157452388Y-142180000D02*
X157452388Y-140664000D01*
X158293388Y-142180000D02*
X158293388Y-140930000D01*
X158093388Y-142180000D02*
X158093388Y-140838000D01*
X159253388Y-144663000D02*
X159253388Y-141777000D01*
X158853388Y-145121000D02*
X158853388Y-144260000D01*
X158253388Y-142180000D02*
X158253388Y-140910000D01*
X158973388Y-145005000D02*
X158973388Y-144260000D01*
X158613388Y-142180000D02*
X158613388Y-141125000D01*
X157492388Y-142180000D02*
X157492388Y-140670000D01*
X157092388Y-145800000D02*
X157092388Y-144260000D01*
X159533388Y-144135000D02*
X159533388Y-142305000D01*
X157612388Y-145748000D02*
X157612388Y-144260000D01*
X157692388Y-142180000D02*
X157692388Y-140709000D01*
X158893388Y-145084000D02*
X158893388Y-144260000D01*
X158573388Y-142180000D02*
X158573388Y-141098000D01*
X158013388Y-142180000D02*
X158013388Y-140806000D01*
X158733388Y-145224000D02*
X158733388Y-144260000D01*
X159173388Y-144774000D02*
X159173388Y-141666000D01*
X157252388Y-142180000D02*
X157252388Y-140644000D01*
X158173388Y-145568000D02*
X158173388Y-144260000D01*
X158813388Y-145157000D02*
X158813388Y-144260000D01*
X159712388Y-143220000D02*
G75*
G03*
X159712388Y-143220000I-2620000J0D01*
G01*
X116677500Y-147160000D02*
X116677500Y-153700000D01*
X119417500Y-147160000D02*
X119417500Y-153700000D01*
X116677500Y-153700000D02*
X117007500Y-153700000D01*
X119087500Y-147160000D02*
X119417500Y-147160000D01*
X119417500Y-153700000D02*
X119087500Y-153700000D01*
X117007500Y-147160000D02*
X116677500Y-147160000D01*
X105613388Y-121603000D02*
X105613388Y-118837000D01*
X105893388Y-121025000D02*
X105893388Y-119415000D01*
X105133388Y-122157000D02*
X105133388Y-121260000D01*
X105173388Y-122121000D02*
X105173388Y-121260000D01*
X105813388Y-121231000D02*
X105813388Y-119209000D01*
X105933388Y-120897000D02*
X105933388Y-119543000D01*
X104413388Y-119180000D02*
X104413388Y-117838000D01*
X103692388Y-122785000D02*
X103692388Y-121260000D01*
X103932388Y-119180000D02*
X103932388Y-117692000D01*
X104893388Y-119180000D02*
X104893388Y-118098000D01*
X103412388Y-122800000D02*
X103412388Y-121260000D01*
X104253388Y-122662000D02*
X104253388Y-121260000D01*
X104613388Y-119180000D02*
X104613388Y-117930000D01*
X104293388Y-119180000D02*
X104293388Y-117792000D01*
X103652388Y-122789000D02*
X103652388Y-121260000D01*
X103412388Y-119180000D02*
X103412388Y-117640000D01*
X104853388Y-122369000D02*
X104853388Y-121260000D01*
X104973388Y-119180000D02*
X104973388Y-118155000D01*
X103892388Y-122756000D02*
X103892388Y-121260000D01*
X103732388Y-119180000D02*
X103732388Y-117659000D01*
X104653388Y-119180000D02*
X104653388Y-117952000D01*
X104453388Y-119180000D02*
X104453388Y-117855000D01*
X104092388Y-119180000D02*
X104092388Y-117729000D01*
X105133388Y-119180000D02*
X105133388Y-118283000D01*
X104012388Y-122731000D02*
X104012388Y-121260000D01*
X103532388Y-122798000D02*
X103532388Y-121260000D01*
X105253388Y-119180000D02*
X105253388Y-118394000D01*
X104733388Y-122444000D02*
X104733388Y-121260000D01*
X104493388Y-122568000D02*
X104493388Y-121260000D01*
X103452388Y-119180000D02*
X103452388Y-117640000D01*
X105413388Y-121873000D02*
X105413388Y-121260000D01*
X104092388Y-122711000D02*
X104092388Y-121260000D01*
X103492388Y-119180000D02*
X103492388Y-117641000D01*
X103572388Y-119180000D02*
X103572388Y-117644000D01*
X105853388Y-121135000D02*
X105853388Y-119305000D01*
X104213388Y-122675000D02*
X104213388Y-121260000D01*
X104933388Y-119180000D02*
X104933388Y-118125000D01*
X104653388Y-122488000D02*
X104653388Y-121260000D01*
X103492388Y-122799000D02*
X103492388Y-121260000D01*
X106013388Y-120504000D02*
X106013388Y-119936000D01*
X103772388Y-122776000D02*
X103772388Y-121260000D01*
X104373388Y-122618000D02*
X104373388Y-121260000D01*
X103852388Y-122763000D02*
X103852388Y-121260000D01*
X103812388Y-122770000D02*
X103812388Y-121260000D01*
X104453388Y-122585000D02*
X104453388Y-121260000D01*
X103812388Y-119180000D02*
X103812388Y-117670000D01*
X104813388Y-122395000D02*
X104813388Y-121260000D01*
X105053388Y-119180000D02*
X105053388Y-118216000D01*
X105293388Y-122005000D02*
X105293388Y-121260000D01*
X104573388Y-119180000D02*
X104573388Y-117910000D01*
X104893388Y-122342000D02*
X104893388Y-121260000D01*
X105453388Y-121825000D02*
X105453388Y-118615000D01*
X103612388Y-122793000D02*
X103612388Y-121260000D01*
X105093388Y-119180000D02*
X105093388Y-118249000D01*
X104693388Y-122467000D02*
X104693388Y-121260000D01*
X104933388Y-122315000D02*
X104933388Y-121260000D01*
X104813388Y-119180000D02*
X104813388Y-118045000D01*
X104413388Y-122602000D02*
X104413388Y-121260000D01*
X105573388Y-121663000D02*
X105573388Y-118777000D01*
X105373388Y-119180000D02*
X105373388Y-118521000D01*
X104012388Y-119180000D02*
X104012388Y-117709000D01*
X104573388Y-122530000D02*
X104573388Y-121260000D01*
X105333388Y-121963000D02*
X105333388Y-121260000D01*
X105213388Y-119180000D02*
X105213388Y-118356000D01*
X103452388Y-122800000D02*
X103452388Y-121260000D01*
X105013388Y-122255000D02*
X105013388Y-121260000D01*
X103892388Y-119180000D02*
X103892388Y-117684000D01*
X105213388Y-122084000D02*
X105213388Y-121260000D01*
X104052388Y-119180000D02*
X104052388Y-117719000D01*
X100607613Y-121695000D02*
X101107613Y-121695000D01*
X105253388Y-122046000D02*
X105253388Y-121260000D01*
X104253388Y-119180000D02*
X104253388Y-117778000D01*
X104173388Y-119180000D02*
X104173388Y-117752000D01*
X105533388Y-121720000D02*
X105533388Y-118720000D01*
X104773388Y-119180000D02*
X104773388Y-118020000D01*
X104613388Y-122510000D02*
X104613388Y-121260000D01*
X105173388Y-119180000D02*
X105173388Y-118319000D01*
X105973388Y-120738000D02*
X105973388Y-119702000D01*
X103652388Y-119180000D02*
X103652388Y-117651000D01*
X104333388Y-122634000D02*
X104333388Y-121260000D01*
X104973388Y-122285000D02*
X104973388Y-121260000D01*
X104373388Y-119180000D02*
X104373388Y-117822000D01*
X105773388Y-121318000D02*
X105773388Y-119122000D01*
X105013388Y-119180000D02*
X105013388Y-118185000D01*
X104213388Y-119180000D02*
X104213388Y-117765000D01*
X103612388Y-119180000D02*
X103612388Y-117647000D01*
X105693388Y-121471000D02*
X105693388Y-118969000D01*
X103932388Y-122748000D02*
X103932388Y-121260000D01*
X104173388Y-122688000D02*
X104173388Y-121260000D01*
X105333388Y-119180000D02*
X105333388Y-118477000D01*
X103772388Y-119180000D02*
X103772388Y-117664000D01*
X100857613Y-121945000D02*
X100857613Y-121445000D01*
X105093388Y-122191000D02*
X105093388Y-121260000D01*
X103972388Y-122740000D02*
X103972388Y-121260000D01*
X103692388Y-119180000D02*
X103692388Y-117655000D01*
X104533388Y-122549000D02*
X104533388Y-121260000D01*
X104293388Y-122648000D02*
X104293388Y-121260000D01*
X104733388Y-119180000D02*
X104733388Y-117996000D01*
X103532388Y-119180000D02*
X103532388Y-117642000D01*
X105293388Y-119180000D02*
X105293388Y-118435000D01*
X104133388Y-119180000D02*
X104133388Y-117740000D01*
X104133388Y-122700000D02*
X104133388Y-121260000D01*
X103732388Y-122781000D02*
X103732388Y-121260000D01*
X104693388Y-119180000D02*
X104693388Y-117973000D01*
X104333388Y-119180000D02*
X104333388Y-117806000D01*
X105053388Y-122224000D02*
X105053388Y-121260000D01*
X104052388Y-122721000D02*
X104052388Y-121260000D01*
X104773388Y-122420000D02*
X104773388Y-121260000D01*
X105373388Y-121919000D02*
X105373388Y-121260000D01*
X105733388Y-121398000D02*
X105733388Y-119042000D01*
X105493388Y-121774000D02*
X105493388Y-118666000D01*
X103572388Y-122796000D02*
X103572388Y-121260000D01*
X104493388Y-119180000D02*
X104493388Y-117872000D01*
X105413388Y-119180000D02*
X105413388Y-118567000D01*
X103852388Y-119180000D02*
X103852388Y-117677000D01*
X103972388Y-119180000D02*
X103972388Y-117700000D01*
X104853388Y-119180000D02*
X104853388Y-118071000D01*
X105653388Y-121539000D02*
X105653388Y-118901000D01*
X104533388Y-119180000D02*
X104533388Y-117891000D01*
X106032388Y-120220000D02*
G75*
G03*
X106032388Y-120220000I-2620000J0D01*
G01*
X87858928Y-134700000D02*
X88188928Y-134700000D01*
X85448928Y-141240000D02*
X85778928Y-141240000D01*
X85778928Y-134700000D02*
X85448928Y-134700000D01*
X88188928Y-141240000D02*
X87858928Y-141240000D01*
X88188928Y-134700000D02*
X88188928Y-141240000D01*
X85448928Y-134700000D02*
X85448928Y-141240000D01*
X103167500Y-136970000D02*
X109707500Y-136970000D01*
X109707500Y-136970000D02*
X109707500Y-136640000D01*
X103167500Y-136640000D02*
X103167500Y-136970000D01*
X109707500Y-134230000D02*
X109707500Y-134560000D01*
X103167500Y-134230000D02*
X109707500Y-134230000D01*
X103167500Y-134560000D02*
X103167500Y-134230000D01*
X109707500Y-140640000D02*
X109707500Y-140310000D01*
X103167500Y-137900000D02*
X109707500Y-137900000D01*
X103167500Y-140310000D02*
X103167500Y-140640000D01*
X109707500Y-137900000D02*
X109707500Y-138230000D01*
X103167500Y-138230000D02*
X103167500Y-137900000D01*
X103167500Y-140640000D02*
X109707500Y-140640000D01*
X82388750Y-148250000D02*
X81763750Y-148250000D01*
X82388750Y-144210000D02*
X81763750Y-144210000D01*
X82388750Y-148250000D02*
X82388750Y-144210000D01*
X80173750Y-148250000D02*
X79548750Y-148250000D01*
X80173750Y-144210000D02*
X79548750Y-144210000D01*
X79548750Y-148250000D02*
X79548750Y-144210000D01*
X71097500Y-134700000D02*
X71097500Y-141240000D01*
X68357500Y-141240000D02*
X68687500Y-141240000D01*
X71097500Y-141240000D02*
X70767500Y-141240000D01*
X70767500Y-134700000D02*
X71097500Y-134700000D01*
X68687500Y-134700000D02*
X68357500Y-134700000D01*
X68357500Y-134700000D02*
X68357500Y-141240000D01*
M02*
