M48
; DRILL file {KiCad 6.0.4-6f826c9f35~116~ubuntu20.04.1} date lun 25 abr 2022 20:45:25
; FORMAT={-:-/ absolute / inch / decimal}
; #@! TF.CreationDate,2022-04-25T20:45:25+02:00
; #@! TF.GenerationSoftware,Kicad,Pcbnew,6.0.4-6f826c9f35~116~ubuntu20.04.1
; #@! TF.FileFunction,Plated,1,2,PTH
FMAT,2
INCH
; #@! TA.AperFunction,Plated,PTH,ViaDrill
T1C0.0157
; #@! TA.AperFunction,Plated,PTH,ComponentDrill
T2C0.0197
; #@! TA.AperFunction,Plated,PTH,ComponentDrill
T3C0.0300
; #@! TA.AperFunction,Plated,PTH,ComponentDrill
T4C0.0315
; #@! TA.AperFunction,Plated,PTH,ComponentDrill
T5C0.0354
; #@! TA.AperFunction,Plated,PTH,ComponentDrill
T6C0.0394
; #@! TA.AperFunction,Plated,PTH,ComponentDrill
T7C0.0433
; #@! TA.AperFunction,Plated,PTH,ComponentDrill
T8C0.0472
; #@! TA.AperFunction,Plated,PTH,ComponentDrill
T9C0.1260
%
G90
G05
T1
X2.5019Y-4.6858
X2.5019Y-4.8827
X2.5019Y-5.8669
X2.5019Y-6.0638
X2.6987Y-6.0638
X2.7807Y-4.8232
X2.8956Y-5.0795
X2.8956Y-6.0638
X2.8956Y-6.2606
X2.9252Y-4.7795
X3.2893Y-5.0795
X3.537Y-4.7874
X3.9752Y-5.1315
X4.166Y-6.0634
X4.168Y-5.8701
X4.2205Y-5.4016
X4.2208Y-4.9516
X4.2735Y-4.6858
X4.357Y-6.0654
X4.359Y-5.872
X4.4704Y-4.6858
X4.4704Y-5.0795
X4.6058Y-5.0807
X4.6672Y-4.6858
X4.6925Y-6.4043
X4.6929Y-5.189
X4.8028Y-6.5173
X4.8641Y-4.6858
X4.8641Y-5.0795
X4.8641Y-6.0638
X4.9016Y-6.4055
X5.0609Y-4.6858
X5.0609Y-5.0795
X5.0609Y-5.4732
X5.2578Y-4.6858
X5.2578Y-5.0795
X5.2578Y-5.4732
X5.2578Y-6.0638
X5.4546Y-4.6858
X5.4546Y-5.0795
X5.4546Y-5.4732
X5.6515Y-4.6858
X5.6515Y-4.8827
X5.8339Y-5.7358
X5.8483Y-4.6858
X5.8483Y-4.8827
X5.8483Y-5.0795
X6.0452Y-5.0795
T2
X2.5157Y-6.3402
X2.5434Y-6.2733
X2.5434Y-6.407
X2.6102Y-6.2457
X2.6102Y-6.4346
X2.677Y-6.2733
X2.677Y-6.407
X2.7047Y-6.3402
X5.9815Y-4.7228
X6.0092Y-4.656
X6.0092Y-4.7896
X6.076Y-4.6283
X6.076Y-4.8173
X6.1428Y-4.656
X6.1428Y-4.7896
X6.1705Y-4.7228
T3
X2.6315Y-4.9358
X2.6315Y-5.9358
X2.7315Y-4.9358
X2.7315Y-5.9358
X2.8315Y-4.9358
X2.8315Y-5.9358
X2.9315Y-4.9358
X2.9315Y-5.9358
X3.0315Y-4.9358
X3.0315Y-5.9358
X3.1315Y-4.9358
X3.1315Y-5.9358
X3.2315Y-4.9358
X3.2315Y-5.9358
X3.3315Y-4.9358
X3.3315Y-5.9358
X3.4315Y-4.9358
X3.4315Y-5.9358
X3.5315Y-4.9358
X3.5315Y-5.9358
X3.6315Y-4.9358
X3.6315Y-5.9358
X3.7315Y-4.9358
X3.7315Y-5.9358
X3.8315Y-4.9358
X3.8315Y-5.9358
X3.9315Y-4.9358
X3.9315Y-5.9358
X4.0315Y-4.9358
X4.0315Y-5.9358
T4
X2.7314Y-5.1
X2.7432Y-5.7079
X2.7432Y-5.8063
X2.7452Y-5.2819
X2.7452Y-5.5819
X2.8914Y-5.7079
X2.8914Y-5.8063
X2.9134Y-5.2819
X2.9134Y-5.5819
X3.0314Y-5.1
X3.0396Y-5.7079
X3.0396Y-5.8063
X3.0816Y-5.2819
X3.0816Y-5.5819
X3.1357Y-5.1
X3.1877Y-5.7079
X3.1877Y-5.8063
X3.2498Y-5.2819
X3.2498Y-5.5819
X3.3359Y-5.7079
X3.3359Y-5.8063
X3.4181Y-5.2819
X3.4181Y-5.5819
X3.4357Y-5.1
X3.4841Y-5.7079
X3.4841Y-5.8063
X3.5863Y-5.2819
X3.5863Y-5.5819
X3.6323Y-5.7079
X3.6323Y-5.8063
X3.6637Y-5.0756
X3.6637Y-5.174
X3.7545Y-5.2819
X3.7545Y-5.5819
X3.7805Y-5.7079
X3.7805Y-5.8063
X3.9227Y-5.2819
X3.9227Y-5.5819
X3.9286Y-5.7079
X3.9286Y-5.8063
X4.032Y-4.7331
X4.0405Y-5.0496
X4.0405Y-5.1941
X4.0405Y-5.3386
X4.0405Y-5.4831
X4.0405Y-5.6276
X4.0405Y-5.772
X4.1107Y-4.7331
X4.3405Y-5.0496
X4.3405Y-5.1941
X4.3405Y-5.3386
X4.3405Y-5.4831
X4.3405Y-5.6276
X4.3405Y-5.772
X4.6475Y-5.7724
X4.6475Y-6.0724
X4.8273Y-5.8732
X4.8273Y-5.9717
X5.0071Y-5.7724
X5.0071Y-6.0724
X5.1869Y-5.8732
X5.1869Y-5.9717
X6.1454Y-5.6386
X6.1475Y-5.4358
X6.1515Y-5.2488
X6.2241Y-5.6386
X6.2302Y-5.2488
X6.246Y-5.4358
T5
X4.7381Y-4.9033
X4.7381Y-5.0033
X5.0491Y-4.9033
X5.0491Y-5.0033
T6
X2.6299Y-4.685
X2.7299Y-4.685
X2.8299Y-4.685
X2.9299Y-4.685
X3.0299Y-4.685
X3.1273Y-6.1817
X3.1273Y-6.2817
X3.1273Y-6.3817
X3.1299Y-4.685
X3.2273Y-6.1817
X3.2273Y-6.2817
X3.2273Y-6.3817
X3.2299Y-4.685
X3.3273Y-6.1817
X3.3273Y-6.2817
X3.3273Y-6.3817
X3.3299Y-4.685
X3.4273Y-6.1817
X3.4273Y-6.2817
X3.4273Y-6.3817
X3.4299Y-4.685
X3.5273Y-6.1817
X3.5273Y-6.2817
X3.5273Y-6.3817
X3.5299Y-4.685
X3.6273Y-6.1817
X3.6273Y-6.2817
X3.6273Y-6.3817
X3.6299Y-4.685
X3.7273Y-6.1817
X3.7273Y-6.2817
X3.7273Y-6.3817
X3.8273Y-6.1817
X3.8273Y-6.2817
X3.8273Y-6.3817
X4.1834Y-6.1817
X4.1834Y-6.2817
X4.1834Y-6.3817
X4.2834Y-6.1817
X4.2834Y-6.2817
X4.2834Y-6.3817
X4.3834Y-6.1817
X4.3834Y-6.2817
X4.3834Y-6.3817
T7
X4.6495Y-5.4004
X4.6495Y-5.6563
X4.8267Y-5.4004
X4.8267Y-5.6563
X5.0078Y-5.4004
X5.0078Y-5.6563
X5.1849Y-5.4004
X5.1849Y-5.6563
X5.4666Y-5.6386
X5.9666Y-5.6386
T8
X5.6417Y-5.4374
X5.7417Y-5.4374
X5.8417Y-5.4374
T9
X2.6102Y-6.3402
X6.076Y-4.7228
T6
G00X5.419Y-6.0709
M15
G01X5.4977Y-6.0709
M16
G05
G00X5.419Y-6.3071
M15
G01X5.4977Y-6.3071
M16
G05
G00X5.6434Y-6.2283
M15
G01X5.6434Y-6.1496
M16
G05
T0
M30
